<?xml version="1.0" encoding="UTF-8"?>
<!DOCTYPE svg PUBLIC "-//W3C//DTD SVG 1.1//EN" "http://www.w3.org/Graphics/SVG/1.1/DTD/svg11.dtd">
<svg xmlns="http://www.w3.org/2000/svg" version="1.1" width="174px" height="174px" style="shape-rendering:geometricPrecision; text-rendering:geometricPrecision; image-rendering:optimizeQuality; fill-rule:evenodd; clip-rule:evenodd" xmlns:xlink="http://www.w3.org/1999/xlink">
<g><path style="opacity:0.06" fill="#060708" d="M 120.5,5.5 C 124.062,5.9652 127.395,7.13187 130.5,9C 141.652,16.4412 152.985,23.6078 164.5,30.5C 165.314,32.7662 165.814,35.0995 166,37.5C 166.38,63.1992 166.713,88.8659 167,114.5C 151.922,122.621 136.422,130.121 120.5,137C 116.833,139.833 113.167,142.667 109.5,145.5C 106.504,151.498 103.504,157.498 100.5,163.5C 94.5388,167.987 87.8721,170.154 80.5,170C 66.6643,161.583 52.9976,152.916 39.5,144C 38.8742,143.25 38.3742,142.416 38,141.5C 37.8333,138.833 37.6667,136.167 37.5,133.5C 38.0032,128.156 38.1699,122.823 38,117.5C 27,110.167 16,102.833 5,95.5C 4.5,93 4,90.5 3.5,88C 4.3726,77.6273 4.70593,67.294 4.5,57C 4.83333,55.8333 5.16667,54.6667 5.5,53.5C 30.0312,42.2751 54.3645,30.7751 78.5,19C 81.5,18.3333 84.5,18.3333 87.5,19C 93.2761,22.4437 98.7761,26.2771 104,30.5C 105.158,30.0019 105.991,29.1685 106.5,28C 105.493,26.48 104.827,24.8133 104.5,23C 104.946,19.8249 105.446,16.6582 106,13.5C 110.686,10.4103 115.52,7.74361 120.5,5.5 Z M 146.5,84.5 C 147.222,84.9175 147.722,85.5842 148,86.5C 148.83,92.5276 148.664,98.5276 147.5,104.5C 145.358,105.601 143.192,106.601 141,107.5C 140.333,100.833 140.333,94.1667 141,87.5C 142.876,86.3913 144.709,85.3913 146.5,84.5 Z M 123.5,95.5 C 123.518,101.687 123.685,108.02 124,114.5C 121.118,118.192 117.284,120.192 112.5,120.5C 112.334,114.491 112.501,108.491 113,102.5C 116.308,99.7711 119.808,97.4377 123.5,95.5 Z M 95.5,100.5 C 96.7251,101.152 97.3917,102.319 97.5,104C 97.2316,119.485 97.2316,134.985 97.5,150.5C 96.448,150.649 95.448,150.483 94.5,150C 92.0888,148.045 89.5888,146.211 87,144.5C 86.3333,131.833 86.3333,119.167 87,106.5C 89.5995,104.121 92.4328,102.121 95.5,100.5 Z"/></g>
<g><path style="opacity:0.875" fill="#8e6341" d="M 127.5,11.5 C 125.712,11.0295 123.878,10.6962 122,10.5C 119.992,10.3068 118.492,10.9735 117.5,12.5C 115.565,13.1495 113.565,13.4828 111.5,13.5C 114.77,11.8451 118.104,10.1785 121.5,8.5C 123.987,8.75866 125.987,9.75866 127.5,11.5 Z"/></g>
<g><path style="opacity:0.639" fill="#694432" d="M 127.5,11.5 C 129.027,11.427 130.027,12.0937 130.5,13.5C 130.167,13.5 129.833,13.5 129.5,13.5C 129.167,13.5 128.833,13.5 128.5,13.5C 128.167,12.8333 127.833,12.1667 127.5,11.5 Z"/></g>
<g><path style="opacity:1" fill="#f5b84e" d="M 109.5,18.5 C 110.458,18.9528 111.292,19.6195 112,20.5C 114.267,19.0652 116.267,19.3985 118,21.5C 117.741,25.68 119.241,29.3466 122.5,32.5C 121.376,33.8592 120.042,34.8592 118.5,35.5C 116.219,33.5721 113.553,32.5721 110.5,32.5C 109.559,27.9296 109.226,23.263 109.5,18.5 Z"/></g>
<g><path style="opacity:1" fill="#f5ab4a" d="M 117.5,12.5 C 117.248,15.3198 117.748,17.9865 119,20.5C 120.943,22.1508 122.443,24.1508 123.5,26.5C 125.045,27.4519 126.712,27.7852 128.5,27.5C 128.523,29.5996 127.856,31.4329 126.5,33C 127.101,34.605 128.101,35.9384 129.5,37C 129.786,38.3877 129.452,39.8877 128.5,41.5C 127.833,41.5 127.167,41.5 126.5,41.5C 124.078,39.2174 121.412,37.2174 118.5,35.5C 120.042,34.8592 121.376,33.8592 122.5,32.5C 119.241,29.3466 117.741,25.68 118,21.5C 116.267,19.3985 114.267,19.0652 112,20.5C 111.292,19.6195 110.458,18.9528 109.5,18.5C 109.392,16.4862 110.058,14.8195 111.5,13.5C 113.565,13.4828 115.565,13.1495 117.5,12.5 Z"/></g>
<g><path style="opacity:1" fill="#f89e49" d="M 127.5,11.5 C 127.833,12.1667 128.167,12.8333 128.5,13.5C 123.89,13.5959 123.556,14.5959 127.5,16.5C 129.793,21.2891 132.293,25.9557 135,30.5C 137.27,35.246 138.437,40.246 138.5,45.5C 134.55,45.5124 131.216,44.1791 128.5,41.5C 129.452,39.8877 129.786,38.3877 129.5,37C 128.101,35.9384 127.101,34.605 126.5,33C 127.856,31.4329 128.523,29.5996 128.5,27.5C 126.712,27.7852 125.045,27.4519 123.5,26.5C 122.443,24.1508 120.943,22.1508 119,20.5C 117.748,17.9865 117.248,15.3198 117.5,12.5C 118.492,10.9735 119.992,10.3068 122,10.5C 123.878,10.6962 125.712,11.0295 127.5,11.5 Z"/></g>
<g><path style="opacity:1" fill="#f58c4b" d="M 128.5,13.5 C 128.833,13.5 129.167,13.5 129.5,13.5C 130.382,15.3838 131.882,16.7171 134,17.5C 134.813,19.4357 135.313,21.4357 135.5,23.5C 138.745,24.0398 141.245,25.7065 143,28.5C 143.553,33.545 145.053,38.2117 147.5,42.5C 148.496,48.4632 148.829,54.4632 148.5,60.5C 146.833,60.5 145.167,60.5 143.5,60.5C 142.609,59.8902 141.609,59.5569 140.5,59.5C 138.629,55.1338 137.962,50.4671 138.5,45.5C 138.437,40.246 137.27,35.246 135,30.5C 132.293,25.9557 129.793,21.2891 127.5,16.5C 123.556,14.5959 123.89,13.5959 128.5,13.5 Z"/></g>
<g><path style="opacity:0.871" fill="#b4945a" d="M 111.5,13.5 C 110.058,14.8195 109.392,16.4862 109.5,18.5C 109.226,23.263 109.559,27.9296 110.5,32.5C 108.55,27.2649 107.883,21.5982 108.5,15.5C 108.973,14.0937 109.973,13.427 111.5,13.5 Z"/></g>
<g><path style="opacity:0.957" fill="#287988" d="M 84.5,20.5 C 72.1532,26.6287 59.8198,32.962 47.5,39.5C 46.609,38.8902 45.609,38.5569 44.5,38.5C 55.3523,32.9235 66.3523,27.4235 77.5,22C 79.74,21.023 82.0733,20.523 84.5,20.5 Z"/></g>
<g><path style="opacity:0.918" fill="#594438" d="M 108.5,15.5 C 107.883,21.5982 108.55,27.2649 110.5,32.5C 110.5,32.8333 110.5,33.1667 110.5,33.5C 108.435,33.5172 106.435,33.8505 104.5,34.5C 104.5,34.1667 104.5,33.8333 104.5,33.5C 104.5,33.1667 104.5,32.8333 104.5,32.5C 105.496,32.5858 106.329,32.2524 107,31.5C 107.173,25.9842 107.673,20.6509 108.5,15.5 Z"/></g>
<g><path style="opacity:1" fill="#c36947" d="M 139.5,19.5 C 147.163,23.3294 154.496,27.6627 161.5,32.5C 161.5,44.8333 161.5,57.1667 161.5,69.5C 157.809,67.7893 154.143,66.1226 150.5,64.5C 151.833,64.5 153.167,64.5 154.5,64.5C 154.5,63.5 154.5,62.5 154.5,61.5C 156.346,61.7778 157.68,61.1112 158.5,59.5C 156.908,53.195 156.575,46.8617 157.5,40.5C 152.46,38.3797 151.46,35.0464 154.5,30.5C 152.234,29.6858 149.9,29.1858 147.5,29C 148.517,27.9505 148.684,26.7839 148,25.5C 145.579,24.0394 143.079,22.7061 140.5,21.5C 139.702,21.0431 139.369,20.3764 139.5,19.5 Z"/></g>
<g><path style="opacity:1" fill="#695e70" d="M 104.5,33.5 C 104.5,33.8333 104.5,34.1667 104.5,34.5C 101.833,35.8333 99.1667,37.1667 96.5,38.5C 96.5,37.8333 96.5,37.1667 96.5,36.5C 98.7982,34.5393 101.465,33.5393 104.5,33.5 Z"/></g>
<g><path style="opacity:1" fill="#d8a45c" d="M 110.5,33.5 C 110.5,33.1667 110.5,32.8333 110.5,32.5C 113.553,32.5721 116.219,33.5721 118.5,35.5C 121.412,37.2174 124.078,39.2174 126.5,41.5C 125.833,41.5 125.167,41.5 124.5,41.5C 122.046,40.7729 119.713,39.7729 117.5,38.5C 115.381,36.6002 113.047,34.9336 110.5,33.5 Z"/></g>
<g><path style="opacity:1" fill="#0d2f42" d="M 84.5,20.5 C 90.1009,24.3103 95.7676,28.1436 101.5,32C 102.448,32.4828 103.448,32.6495 104.5,32.5C 104.5,32.8333 104.5,33.1667 104.5,33.5C 101.465,33.5393 98.7982,34.5393 96.5,36.5C 91.1982,39.254 85.8649,41.5873 80.5,43.5C 75.5555,46.0329 70.5555,48.3663 65.5,50.5C 64.8333,50.1667 64.1667,49.8333 63.5,49.5C 58.4346,45.774 53.1013,42.4407 47.5,39.5C 59.8198,32.962 72.1532,26.6287 84.5,20.5 Z"/></g>
<g><path style="opacity:1" fill="#4c758b" d="M 96.5,36.5 C 96.5,37.1667 96.5,37.8333 96.5,38.5C 93.9684,39.5957 91.6351,40.9291 89.5,42.5C 88.209,42.2627 87.209,42.596 86.5,43.5C 85.391,43.5569 84.391,43.8902 83.5,44.5C 82.791,43.596 81.791,43.2627 80.5,43.5C 85.8649,41.5873 91.1982,39.254 96.5,36.5 Z"/></g>
<g><path style="opacity:1" fill="#3aaabb" d="M 80.5,43.5 C 81.791,43.2627 82.791,43.596 83.5,44.5C 77.6818,46.9098 72.0151,49.5765 66.5,52.5C 66.1667,51.8333 65.8333,51.1667 65.5,50.5C 70.5555,48.3663 75.5555,46.0329 80.5,43.5 Z"/></g>
<g><path style="opacity:1" fill="#da935f" d="M 124.5,41.5 C 125.167,41.5 125.833,41.5 126.5,41.5C 127.167,41.5 127.833,41.5 128.5,41.5C 131.216,44.1791 134.55,45.5124 138.5,45.5C 137.962,50.4671 138.629,55.1338 140.5,59.5C 139.5,59.5 138.5,59.5 137.5,59.5C 137.5,58.8333 137.167,58.5 136.5,58.5C 136.665,55.1501 136.498,51.8168 136,48.5C 134.887,47.695 133.721,47.0283 132.5,46.5C 129.755,44.8248 127.088,43.1581 124.5,41.5 Z"/></g>
<g><path style="opacity:1" fill="#389eb5" d="M 44.5,38.5 C 45.609,38.5569 46.609,38.8902 47.5,39.5C 53.1013,42.4407 58.4346,45.774 63.5,49.5C 62.4502,49.9046 62.4502,50.5712 63.5,51.5C 62.4231,52.7051 61.0898,53.3718 59.5,53.5C 59.9528,52.5416 60.6195,51.7083 61.5,51C 56.5547,46.8842 51.2214,43.3842 45.5,40.5C 45.1667,39.8333 44.8333,39.1667 44.5,38.5 Z"/></g>
<g><path style="opacity:1" fill="#151d2e" d="M 117.5,38.5 C 119.713,39.7729 122.046,40.7729 124.5,41.5C 127.088,43.1581 129.755,44.8248 132.5,46.5C 132.415,47.9953 133.081,48.9953 134.5,49.5C 135.499,61.1477 135.832,72.8143 135.5,84.5C 133.199,83.9396 130.866,83.4396 128.5,83C 123.987,80.5791 119.653,77.9125 115.5,75C 112.833,74.3333 110.167,74.3333 107.5,75C 104.253,77.5479 100.586,79.0479 96.5,79.5C 96.281,78.325 96.6143,77.325 97.5,76.5C 101.75,73.897 106.417,72.5637 111.5,72.5C 111.847,63.1885 110.847,54.0218 108.5,45C 108.945,43.5531 109.612,42.2197 110.5,41C 110.252,39.2509 109.252,38.4176 107.5,38.5C 107.5,37.1667 107.5,35.8333 107.5,34.5C 110.793,35.8086 114.126,37.142 117.5,38.5 Z"/></g>
<g><path style="opacity:1" fill="#df7949" d="M 129.5,13.5 C 129.833,13.5 130.167,13.5 130.5,13.5C 133.635,15.2387 136.635,17.2387 139.5,19.5C 139.369,20.3764 139.702,21.0431 140.5,21.5C 143.079,22.7061 145.579,24.0394 148,25.5C 148.684,26.7839 148.517,27.9505 147.5,29C 149.9,29.1858 152.234,29.6858 154.5,30.5C 151.46,35.0464 152.46,38.3797 157.5,40.5C 156.575,46.8617 156.908,53.195 158.5,59.5C 157.68,61.1112 156.346,61.7778 154.5,61.5C 154.5,62.5 154.5,63.5 154.5,64.5C 153.167,64.5 151.833,64.5 150.5,64.5C 149.833,64.5 149.167,64.5 148.5,64.5C 148.5,63.5 148.5,62.5 148.5,61.5C 146.585,61.7845 144.919,61.4511 143.5,60.5C 145.167,60.5 146.833,60.5 148.5,60.5C 148.829,54.4632 148.496,48.4632 147.5,42.5C 145.053,38.2117 143.553,33.545 143,28.5C 141.245,25.7065 138.745,24.0398 135.5,23.5C 135.313,21.4357 134.813,19.4357 134,17.5C 131.882,16.7171 130.382,15.3838 129.5,13.5 Z"/></g>
<g><path style="opacity:0.428" fill="#1a161e" d="M 163.5,33.5 C 163.851,59.8201 164.851,86.1535 166.5,112.5C 166.043,113.298 165.376,113.631 164.5,113.5C 163.536,106.254 163.203,98.9204 163.5,91.5C 163.5,85.5 163.5,79.5 163.5,73.5C 163.5,60.1667 163.5,46.8333 163.5,33.5 Z"/></g>
<g><path style="opacity:1" fill="#0e2d3f" d="M 45.5,40.5 C 51.2214,43.3842 56.5547,46.8842 61.5,51C 60.6195,51.7083 59.9528,52.5416 59.5,53.5C 54.5545,55.3061 49.8878,57.6394 45.5,60.5C 44.5655,61.5676 44.2322,62.901 44.5,64.5C 48.1466,65.3156 51.4799,66.8156 54.5,69C 53.3826,70.8921 51.7159,71.7254 49.5,71.5C 49.5789,73.6663 50.2455,75.6663 51.5,77.5C 51.1667,78.1667 50.8333,78.8333 50.5,79.5C 48.1369,76.5395 46.4702,76.8728 45.5,80.5C 40.8679,77.8573 36.5346,74.8573 32.5,71.5C 33.5832,71.4606 34.5832,71.1272 35.5,70.5C 36.1667,71.1667 36.8333,71.8333 37.5,72.5C 38.3567,71.2643 39.0234,69.931 39.5,68.5C 35.7652,67.8473 32.0985,67.0139 28.5,66C 30.8947,64.0783 33.5614,62.5783 36.5,61.5C 34.725,60.0426 32.725,58.8759 30.5,58C 28.0641,58.0534 25.7308,57.8867 23.5,57.5C 25.5098,55.8287 27.8431,55.162 30.5,55.5C 30.5,54.1667 30.5,52.8333 30.5,51.5C 35.8143,51.7606 36.3143,51.0939 32,49.5C 29.0546,51.7206 25.8879,52.054 22.5,50.5C 29.7587,46.3741 37.4254,43.0407 45.5,40.5 Z"/></g>
<g><path style="opacity:0.827" fill="#307a8a" d="M 44.5,38.5 C 44.8333,39.1667 45.1667,39.8333 45.5,40.5C 37.4254,43.0407 29.7587,46.3741 22.5,50.5C 17.9099,52.1284 13.5765,54.2951 9.5,57C 16.8526,62.3423 24.5193,67.1757 32.5,71.5C 36.5346,74.8573 40.8679,77.8573 45.5,80.5C 50.8097,83.1562 55.8097,86.3228 60.5,90C 61.7932,90.49 63.1266,90.6567 64.5,90.5C 62.5861,97.8919 61.9194,105.559 62.5,113.5C 62.1667,113.5 61.8333,113.5 61.5,113.5C 61.6663,106.492 61.4996,99.4921 61,92.5C 59.8873,91.695 58.7206,91.0283 57.5,90.5C 43.1235,80.8059 28.4569,71.4726 13.5,62.5C 12.8333,62.1667 12.1667,61.8333 11.5,61.5C 11.5,60.8333 11.1667,60.5 10.5,60.5C 9.73867,59.6091 8.73867,58.9424 7.5,58.5C 6.61432,57.675 6.28099,56.675 6.5,55.5C 18.8998,49.3014 31.5664,43.6347 44.5,38.5 Z"/></g>
<g><path style="opacity:0.812" fill="#a8848a" d="M 162.5,32.5 C 163.167,32.5 163.5,32.8333 163.5,33.5C 163.5,46.8333 163.5,60.1667 163.5,73.5C 162.833,73.5 162.167,73.5 161.5,73.5C 162.481,59.9123 162.815,46.2456 162.5,32.5 Z"/></g>
<g><path style="opacity:1" fill="#191b21" d="M 110.5,33.5 C 113.047,34.9336 115.381,36.6002 117.5,38.5C 114.126,37.142 110.793,35.8086 107.5,34.5C 107.5,35.8333 107.5,37.1667 107.5,38.5C 106.07,38.5792 104.736,38.2458 103.5,37.5C 101.417,40.6637 99.5836,43.997 98,47.5C 96.6439,48.3802 95.1439,48.7135 93.5,48.5C 93.5,49.8333 93.5,51.1667 93.5,52.5C 97.7966,53.2879 98.63,55.6212 96,59.5C 95.3333,58.8333 94.6667,58.1667 94,57.5C 93.4954,60.5174 91.9954,62.8508 89.5,64.5C 89.8333,65.1667 90.1667,65.8333 90.5,66.5C 89.2393,68.4534 88.0726,70.4534 87,72.5C 86.7271,65.1465 86.2271,57.8132 85.5,50.5C 86.2917,47.3121 87.9583,44.8121 90.5,43C 90.2716,42.6012 89.9382,42.4346 89.5,42.5C 91.6351,40.9291 93.9684,39.5957 96.5,38.5C 99.1667,37.1667 101.833,35.8333 104.5,34.5C 106.435,33.8505 108.435,33.5172 110.5,33.5 Z"/></g>
<g><path style="opacity:1" fill="#b46f61" d="M 161.5,32.5 C 161.833,32.5 162.167,32.5 162.5,32.5C 162.815,46.2456 162.481,59.9123 161.5,73.5C 161.167,73.5 160.833,73.5 160.5,73.5C 156.5,70.5 152.5,67.5 148.5,64.5C 149.167,64.5 149.833,64.5 150.5,64.5C 154.143,66.1226 157.809,67.7893 161.5,69.5C 161.5,57.1667 161.5,44.8333 161.5,32.5 Z"/></g>
<g><path style="opacity:1" fill="#121621" d="M 107.5,38.5 C 109.252,38.4176 110.252,39.2509 110.5,41C 109.612,42.2197 108.945,43.5531 108.5,45C 110.847,54.0218 111.847,63.1885 111.5,72.5C 106.417,72.5637 101.75,73.897 97.5,76.5C 96.6143,77.325 96.281,78.325 96.5,79.5C 92.9226,79.1449 89.9226,80.1449 87.5,82.5C 86.5,82.5 85.5,82.5 84.5,82.5C 84.3335,70.1622 84.5001,57.8288 85,45.5C 85.7172,44.9558 86.2172,44.2891 86.5,43.5C 87.209,42.596 88.209,42.2627 89.5,42.5C 89.9382,42.4346 90.2716,42.6012 90.5,43C 87.9583,44.8121 86.2917,47.3121 85.5,50.5C 86.2271,57.8132 86.7271,65.1465 87,72.5C 88.0726,70.4534 89.2393,68.4534 90.5,66.5C 90.1667,65.8333 89.8333,65.1667 89.5,64.5C 91.9954,62.8508 93.4954,60.5174 94,57.5C 94.6667,58.1667 95.3333,58.8333 96,59.5C 98.63,55.6212 97.7966,53.2879 93.5,52.5C 93.5,51.1667 93.5,49.8333 93.5,48.5C 95.1439,48.7135 96.6439,48.3802 98,47.5C 99.5836,43.997 101.417,40.6637 103.5,37.5C 104.736,38.2458 106.07,38.5792 107.5,38.5 Z"/></g>
<g><path style="opacity:1" fill="#0c2736" d="M 32.5,71.5 C 24.5193,67.1757 16.8526,62.3423 9.5,57C 13.5765,54.2951 17.9099,52.1284 22.5,50.5C 25.8879,52.054 29.0546,51.7206 32,49.5C 36.3143,51.0939 35.8143,51.7606 30.5,51.5C 30.5,52.8333 30.5,54.1667 30.5,55.5C 27.8431,55.162 25.5098,55.8287 23.5,57.5C 25.7308,57.8867 28.0641,58.0534 30.5,58C 32.725,58.8759 34.725,60.0426 36.5,61.5C 33.5614,62.5783 30.8947,64.0783 28.5,66C 32.0985,67.0139 35.7652,67.8473 39.5,68.5C 39.0234,69.931 38.3567,71.2643 37.5,72.5C 36.8333,71.8333 36.1667,71.1667 35.5,70.5C 34.5832,71.1272 33.5832,71.4606 32.5,71.5 Z"/></g>
<g><path style="opacity:1" fill="#c17c60" d="M 140.5,60.5 C 140.5,60.1667 140.5,59.8333 140.5,59.5C 141.609,59.5569 142.609,59.8902 143.5,60.5C 144.919,61.4511 146.585,61.7845 148.5,61.5C 148.5,62.5 148.5,63.5 148.5,64.5C 146.5,63.8333 144.5,63.1667 142.5,62.5C 142.167,61.5 141.5,60.8333 140.5,60.5 Z"/></g>
<g><path style="opacity:1" fill="#2ad1e4" d="M 63.5,49.5 C 64.1667,49.8333 64.8333,50.1667 65.5,50.5C 65.8333,51.1667 66.1667,51.8333 66.5,52.5C 66.1502,59.3954 65.1502,66.0621 63.5,72.5C 57.8678,69.2215 52.2011,65.8882 46.5,62.5C 45.7025,62.0431 45.3691,61.3764 45.5,60.5C 49.8878,57.6394 54.5545,55.3061 59.5,53.5C 61.0898,53.3718 62.4231,52.7051 63.5,51.5C 62.4502,50.5712 62.4502,49.9046 63.5,49.5 Z"/></g>
<g><path style="opacity:1" fill="#13c1e0" d="M 63.5,53.5 C 64.8157,59.0129 64.8157,64.6796 63.5,70.5C 62.0256,69.5637 61.0256,68.2303 60.5,66.5C 58.9223,65.7022 57.2556,65.2022 55.5,65C 52.7138,62.9786 53.0472,61.4786 56.5,60.5C 55.2889,59.2798 55.2889,58.1131 56.5,57C 59.0691,56.1016 61.4024,54.935 63.5,53.5 Z"/></g>
<g><path style="opacity:1" fill="#134362" d="M 83.5,44.5 C 81.9468,46.3134 80.2801,48.1467 78.5,50C 80.1341,50.4935 81.8008,50.6602 83.5,50.5C 83.5,51.5 83.5,52.5 83.5,53.5C 82.1667,53.5 80.8333,53.5 79.5,53.5C 79.4609,55.3588 80.2942,56.6921 82,57.5C 82.1966,65.9112 82.6966,74.2446 83.5,82.5C 77.9032,79.4194 72.4032,76.0861 67,72.5C 66.5004,65.8417 66.3337,59.175 66.5,52.5C 72.0151,49.5765 77.6818,46.9098 83.5,44.5 Z"/></g>
<g><path style="opacity:0.637" fill="#182c30" d="M 6.5,55.5 C 6.28099,56.675 6.61432,57.675 7.5,58.5C 8.73867,58.9424 9.73867,59.6091 10.5,60.5C 9.5,60.5 8.5,60.5 7.5,60.5C 7.16789,71.5202 7.50122,82.5202 8.5,93.5C 13.7452,96.9436 18.7452,100.61 23.5,104.5C 17.3017,101.48 11.4683,97.8137 6,93.5C 5.17329,80.6599 5.33996,67.9933 6.5,55.5 Z"/></g>
<g><path style="opacity:1" fill="#133a54" d="M 86.5,43.5 C 86.2172,44.2891 85.7172,44.9558 85,45.5C 84.5001,57.8288 84.3335,70.1622 84.5,82.5C 85.5,82.5 86.5,82.5 87.5,82.5C 88.5676,83.4345 89.901,83.7678 91.5,83.5C 91.5,84.5 91.5,85.5 91.5,86.5C 93.3666,86.955 95.1999,87.6216 97,88.5C 100.995,86.608 105.161,85.7746 109.5,86C 107.285,87.0438 104.952,87.7105 102.5,88C 104.592,89.377 106.258,91.2103 107.5,93.5C 107.167,94.1667 106.833,94.8333 106.5,95.5C 109.126,96.4492 111.792,96.4492 114.5,95.5C 112.928,96.6873 111.261,97.6873 109.5,98.5C 109.167,98.5 108.833,98.5 108.5,98.5C 106.216,98.0248 104.216,97.0248 102.5,95.5C 97.4326,91.7709 92.0993,88.4376 86.5,85.5C 85.3065,84.7281 84.3065,83.7281 83.5,82.5C 82.6966,74.2446 82.1966,65.9112 82,57.5C 80.2942,56.6921 79.4609,55.3588 79.5,53.5C 80.8333,53.5 82.1667,53.5 83.5,53.5C 83.5,52.5 83.5,51.5 83.5,50.5C 81.8008,50.6602 80.1341,50.4935 78.5,50C 80.2801,48.1467 81.9468,46.3134 83.5,44.5C 84.391,43.8902 85.391,43.5569 86.5,43.5 Z"/></g>
<g><path style="opacity:1" fill="#131616" d="M 11.5,61.5 C 12.1667,61.8333 12.8333,62.1667 13.5,62.5C 13.6941,64.9118 15.0274,65.9118 17.5,65.5C 17.5,66.5 17.5,67.5 17.5,68.5C 19.6957,68.5652 21.6957,69.2319 23.5,70.5C 23.2907,71.086 22.9574,71.586 22.5,72C 24.2746,73.4389 26.2746,74.4389 28.5,75C 27.273,76.5874 27.6063,77.9207 29.5,79C 30.6716,79.3534 31.8382,79.1868 33,78.5C 34.9214,80.0028 37.088,80.6695 39.5,80.5C 39.5,81.5 39.5,82.5 39.5,83.5C 36.7224,83.0217 34.7224,84.0217 33.5,86.5C 35.8523,87.9847 38.1856,89.318 40.5,90.5C 40.5,91.5 40.5,92.5 40.5,93.5C 39.1667,93.5 37.8333,93.5 36.5,93.5C 36.5,94.8333 36.5,96.1667 36.5,97.5C 37.9778,97.238 39.3112,97.5713 40.5,98.5C 37.8929,99.3184 35.2263,99.8184 32.5,100C 31.5761,100.85 31.5761,101.85 32.5,103C 32.1639,104.03 31.4972,104.53 30.5,104.5C 29.7811,102.909 28.7811,101.409 27.5,100C 21.3094,97.5972 15.3094,94.7639 9.5,91.5C 7.72738,81.2243 8.39405,71.2243 11.5,61.5 Z"/></g>
<g><path style="opacity:1" fill="#3a2b32" d="M 132.5,46.5 C 133.721,47.0283 134.887,47.695 136,48.5C 136.498,51.8168 136.665,55.1501 136.5,58.5C 136.827,67.6822 136.493,76.6822 135.5,85.5C 135.5,85.1667 135.5,84.8333 135.5,84.5C 135.832,72.8143 135.499,61.1477 134.5,49.5C 133.081,48.9953 132.415,47.9953 132.5,46.5 Z"/></g>
<g><path style="opacity:1" fill="#243559" d="M 142.5,62.5 C 144.5,63.1667 146.5,63.8333 148.5,64.5C 152.5,67.5 156.5,70.5 160.5,73.5C 156.584,76.257 152.25,78.257 147.5,79.5C 146.828,78.7326 145.995,78.0659 145,77.5C 143.989,78.3366 142.822,78.67 141.5,78.5C 141.15,74.9457 141.816,71.6124 143.5,68.5C 142.311,67.5713 140.978,67.238 139.5,67.5C 139.338,65.4727 139.505,63.4727 140,61.5C 140.671,62.2524 141.504,62.5858 142.5,62.5 Z"/></g>
<g><path style="opacity:1" fill="#4ec4d5" d="M 66.5,52.5 C 66.3337,59.175 66.5004,65.8417 67,72.5C 72.4032,76.0861 77.9032,79.4194 83.5,82.5C 84.3065,83.7281 85.3065,84.7281 86.5,85.5C 85.5041,85.4142 84.6708,85.7476 84,86.5C 83.8333,89.1667 83.6667,91.8333 83.5,94.5C 83.5217,97.5902 84.1883,100.257 85.5,102.5C 85.5,102.833 85.5,103.167 85.5,103.5C 84.8333,103.5 84.5,103.833 84.5,104.5C 83.5038,119.658 83.1705,134.991 83.5,150.5C 82.5067,141.682 82.1734,132.682 82.5,123.5C 77.4834,124.393 72.8168,126.06 68.5,128.5C 66.5648,129.15 64.5648,129.483 62.5,129.5C 63.5,128.833 64.5,128.167 65.5,127.5C 69.299,126.579 72.6323,124.912 75.5,122.5C 76.1667,122.5 76.8333,122.5 77.5,122.5C 78.8068,121.847 80.1401,121.18 81.5,120.5C 82.4989,108.852 82.8322,97.1857 82.5,85.5C 75.9586,87.1845 69.7919,89.8512 64,93.5C 63.5004,100.158 63.3337,106.825 63.5,113.5C 63.1667,113.5 62.8333,113.5 62.5,113.5C 61.9194,105.559 62.5861,97.8919 64.5,90.5C 69.2324,88.2979 73.899,85.7979 78.5,83C 73.4335,79.4778 68.4335,75.9778 63.5,72.5C 65.1502,66.0621 66.1502,59.3954 66.5,52.5 Z"/></g>
<g><path style="opacity:1" fill="#a091b1" d="M 160.5,73.5 C 160.833,73.5 161.167,73.5 161.5,73.5C 162.167,73.5 162.833,73.5 163.5,73.5C 163.5,79.5 163.5,85.5 163.5,91.5C 163.167,91.5 162.833,91.5 162.5,91.5C 162.828,86.1254 162.495,80.7921 161.5,75.5C 160.893,75.6236 160.56,75.9569 160.5,76.5C 156.917,77.7968 153.584,79.4634 150.5,81.5C 149.209,81.2627 148.209,81.596 147.5,82.5C 146.833,82.5 146.167,82.5 145.5,82.5C 144.833,82.5 144.5,82.1667 144.5,81.5C 145.71,81.0679 146.71,80.4013 147.5,79.5C 152.25,78.257 156.584,76.257 160.5,73.5 Z"/></g>
<g><path style="opacity:1" fill="#232d44" d="M 140.5,60.5 C 141.5,60.8333 142.167,61.5 142.5,62.5C 141.504,62.5858 140.671,62.2524 140,61.5C 139.505,63.4727 139.338,65.4727 139.5,67.5C 140.978,67.238 142.311,67.5713 143.5,68.5C 141.816,71.6124 141.15,74.9457 141.5,78.5C 142.822,78.67 143.989,78.3366 145,77.5C 145.995,78.0659 146.828,78.7326 147.5,79.5C 146.71,80.4013 145.71,81.0679 144.5,81.5C 142.703,82.7298 140.703,83.3964 138.5,83.5C 137.868,75.4271 138.535,67.7605 140.5,60.5 Z"/></g>
<g><path style="opacity:1" fill="#102f4c" d="M 135.5,84.5 C 135.5,84.8333 135.5,85.1667 135.5,85.5C 132.899,86.8007 130.232,88.134 127.5,89.5C 123.042,91.2288 118.709,93.2288 114.5,95.5C 111.792,96.4492 109.126,96.4492 106.5,95.5C 106.833,94.8333 107.167,94.1667 107.5,93.5C 106.258,91.2103 104.592,89.377 102.5,88C 104.952,87.7105 107.285,87.0438 109.5,86C 105.161,85.7746 100.995,86.608 97,88.5C 95.1999,87.6216 93.3666,86.955 91.5,86.5C 91.5,85.5 91.5,84.5 91.5,83.5C 89.901,83.7678 88.5676,83.4345 87.5,82.5C 89.9226,80.1449 92.9226,79.1449 96.5,79.5C 100.586,79.0479 104.253,77.5479 107.5,75C 110.167,74.3333 112.833,74.3333 115.5,75C 119.653,77.9125 123.987,80.5791 128.5,83C 130.866,83.4396 133.199,83.9396 135.5,84.5 Z"/></g>
<g><path style="opacity:1" fill="#797079" d="M 137.5,59.5 C 138.5,59.5 139.5,59.5 140.5,59.5C 140.5,59.8333 140.5,60.1667 140.5,60.5C 138.535,67.7605 137.868,75.4271 138.5,83.5C 140.703,83.3964 142.703,82.7298 144.5,81.5C 144.5,82.1667 144.833,82.5 145.5,82.5C 143.75,83.8698 141.75,84.8698 139.5,85.5C 137.575,77.1007 136.908,68.434 137.5,59.5 Z"/></g>
<g><path style="opacity:0.109" fill="#030306" d="M 145.5,82.5 C 146.167,82.5 146.833,82.5 147.5,82.5C 148.5,82.5 149.5,82.5 150.5,82.5C 150.5,90.5 150.5,98.5 150.5,106.5C 146.464,108.188 142.464,109.855 138.5,111.5C 138.5,103.167 138.5,94.8333 138.5,86.5C 138.5,85.8333 138.833,85.5 139.5,85.5C 141.75,84.8698 143.75,83.8698 145.5,82.5 Z M 146.5,84.5 C 144.709,85.3913 142.876,86.3913 141,87.5C 140.333,94.1667 140.333,100.833 141,107.5C 143.192,106.601 145.358,105.601 147.5,104.5C 148.664,98.5276 148.83,92.5276 148,86.5C 147.722,85.5842 147.222,84.9175 146.5,84.5 Z"/></g>
<g><path style="opacity:1" fill="#1e1329" d="M 160.5,76.5 C 161.477,79.2869 161.81,82.2869 161.5,85.5C 158.402,87.1821 155.069,87.6821 151.5,87C 158.403,84.0792 158.069,82.2459 150.5,81.5C 153.584,79.4634 156.917,77.7968 160.5,76.5 Z"/></g>
<g><path style="opacity:1" fill="#121619" d="M 13.5,62.5 C 28.4569,71.4726 43.1235,80.8059 57.5,90.5C 56.596,91.209 56.2627,92.209 56.5,93.5C 58.6348,93.147 59.9681,93.9803 60.5,96C 59.5178,105.142 59.5178,114.309 60.5,123.5C 55.1959,122.66 51.5292,119.66 49.5,114.5C 47.1169,113.613 44.7836,112.613 42.5,111.5C 41.1637,112.423 39.8304,112.923 38.5,113C 37.1832,111.341 35.5165,110.174 33.5,109.5C 32.7255,107.604 31.7255,105.937 30.5,104.5C 31.4972,104.53 32.1639,104.03 32.5,103C 31.5761,101.85 31.5761,100.85 32.5,100C 35.2263,99.8184 37.8929,99.3184 40.5,98.5C 39.3112,97.5713 37.9778,97.238 36.5,97.5C 36.5,96.1667 36.5,94.8333 36.5,93.5C 37.8333,93.5 39.1667,93.5 40.5,93.5C 40.5,92.5 40.5,91.5 40.5,90.5C 38.1856,89.318 35.8523,87.9847 33.5,86.5C 34.7224,84.0217 36.7224,83.0217 39.5,83.5C 39.5,82.5 39.5,81.5 39.5,80.5C 37.088,80.6695 34.9214,80.0028 33,78.5C 31.8382,79.1868 30.6716,79.3534 29.5,79C 27.6063,77.9207 27.273,76.5874 28.5,75C 26.2746,74.4389 24.2746,73.4389 22.5,72C 22.9574,71.586 23.2907,71.086 23.5,70.5C 21.6957,69.2319 19.6957,68.5652 17.5,68.5C 17.5,67.5 17.5,66.5 17.5,65.5C 15.0274,65.9118 13.6941,64.9118 13.5,62.5 Z"/></g>
<g><path style="opacity:1" fill="#113d57" d="M 45.5,60.5 C 45.3691,61.3764 45.7025,62.0431 46.5,62.5C 52.2011,65.8882 57.8678,69.2215 63.5,72.5C 68.4335,75.9778 73.4335,79.4778 78.5,83C 73.899,85.7979 69.2324,88.2979 64.5,90.5C 63.1266,90.6567 61.7932,90.49 60.5,90C 55.8097,86.3228 50.8097,83.1562 45.5,80.5C 46.4702,76.8728 48.1369,76.5395 50.5,79.5C 50.8333,78.8333 51.1667,78.1667 51.5,77.5C 50.2455,75.6663 49.5789,73.6663 49.5,71.5C 51.7159,71.7254 53.3826,70.8921 54.5,69C 51.4799,66.8156 48.1466,65.3156 44.5,64.5C 44.2322,62.901 44.5655,61.5676 45.5,60.5 Z"/></g>
<g><path style="opacity:0.999" fill="#1a1a27" d="M 147.5,82.5 C 148.209,81.596 149.209,81.2627 150.5,81.5C 158.069,82.2459 158.403,84.0792 151.5,87C 155.069,87.6821 158.402,87.1821 161.5,85.5C 161.5,94.5 161.5,103.5 161.5,112.5C 158.392,111.617 156.059,109.784 154.5,107C 153.207,106.51 151.873,106.343 150.5,106.5C 150.5,98.5 150.5,90.5 150.5,82.5C 149.5,82.5 148.5,82.5 147.5,82.5 Z"/></g>
<g><path style="opacity:0.925" fill="#b5b6c3" d="M 136.5,58.5 C 137.167,58.5 137.5,58.8333 137.5,59.5C 136.908,68.434 137.575,77.1007 139.5,85.5C 138.833,85.5 138.5,85.8333 138.5,86.5C 137.504,99.6562 137.171,112.99 137.5,126.5C 136.508,126.672 135.842,126.338 135.5,125.5C 136.825,112.994 136.825,100.327 135.5,87.5C 134.893,87.6236 134.56,87.9569 134.5,88.5C 132.579,89.3627 130.579,90.0293 128.5,90.5C 127.833,90.5 127.5,90.1667 127.5,89.5C 130.232,88.134 132.899,86.8007 135.5,85.5C 136.493,76.6822 136.827,67.6822 136.5,58.5 Z"/></g>
<g><path style="opacity:0.941" fill="#8c97ab" d="M 127.5,89.5 C 127.5,90.1667 127.833,90.5 128.5,90.5C 126.739,91.3127 125.072,92.3127 123.5,93.5C 118.55,95.3084 113.883,97.6417 109.5,100.5C 109.5,99.8333 109.5,99.1667 109.5,98.5C 111.261,97.6873 112.928,96.6873 114.5,95.5C 118.709,93.2288 123.042,91.2288 127.5,89.5 Z"/></g>
<g><path style="opacity:0.079" fill="#05060b" d="M 123.5,93.5 C 124.833,93.5 126.167,93.5 127.5,93.5C 127.298,102.417 126.298,111.084 124.5,119.5C 119.602,121.783 114.602,123.783 109.5,125.5C 109.5,117.167 109.5,108.833 109.5,100.5C 113.883,97.6417 118.55,95.3084 123.5,93.5 Z M 123.5,95.5 C 119.808,97.4377 116.308,99.7711 113,102.5C 112.501,108.491 112.334,114.491 112.5,120.5C 117.284,120.192 121.118,118.192 124,114.5C 123.685,108.02 123.518,101.687 123.5,95.5 Z"/></g>
<g><path style="opacity:1" fill="#153651" d="M 77.5,122.5 C 78.3328,117.458 77.9995,112.458 76.5,107.5C 76.9186,106.328 77.5853,105.328 78.5,104.5C 77.624,103.749 76.624,103.249 75.5,103C 78.3072,101.603 78.8072,99.7693 77,97.5C 76.3333,98.1667 75.6667,98.8333 75,99.5C 71.9832,99.219 68.8166,99.219 65.5,99.5C 65.2606,101.467 65.5939,103.301 66.5,105C 64.86,111.378 64.36,117.878 65,124.5C 66.016,125.634 66.6827,125.301 67,123.5C 67.7247,124.059 68.5581,124.392 69.5,124.5C 71.3337,123.246 73.3337,122.579 75.5,122.5C 72.6323,124.912 69.299,126.579 65.5,127.5C 63.5636,123.285 62.8969,118.619 63.5,113.5C 63.3337,106.825 63.5004,100.158 64,93.5C 69.7919,89.8512 75.9586,87.1845 82.5,85.5C 82.8322,97.1857 82.4989,108.852 81.5,120.5C 80.1401,121.18 78.8068,121.847 77.5,122.5 Z"/></g>
<g><path style="opacity:1" fill="#28d7ef" d="M 86.5,85.5 C 92.0993,88.4376 97.4326,91.7709 102.5,95.5C 100.833,96.1667 99.1667,96.8333 97.5,97.5C 95.847,97.6596 94.5137,98.3263 93.5,99.5C 91.7162,99.8925 90.0495,100.559 88.5,101.5C 87.391,101.557 86.391,101.89 85.5,102.5C 84.1883,100.257 83.5217,97.5902 83.5,94.5C 83.6667,91.8333 83.8333,89.1667 84,86.5C 84.6708,85.7476 85.5041,85.4142 86.5,85.5 Z"/></g>
<g><path style="opacity:0.996" fill="#19212e" d="M 134.5,88.5 C 135.824,100.007 135.824,111.673 134.5,123.5C 133.019,122.52 131.685,121.353 130.5,120C 128.527,119.505 126.527,119.338 124.5,119.5C 126.298,111.084 127.298,102.417 127.5,93.5C 126.167,93.5 124.833,93.5 123.5,93.5C 125.072,92.3127 126.739,91.3127 128.5,90.5C 130.579,90.0293 132.579,89.3627 134.5,88.5 Z"/></g>
<g><path style="opacity:1" fill="#4598a5" d="M 102.5,95.5 C 104.216,97.0248 106.216,98.0248 108.5,98.5C 108.167,99.1667 107.833,99.8333 107.5,100.5C 104.487,98.5001 101.154,97.5001 97.5,97.5C 99.1667,96.8333 100.833,96.1667 102.5,95.5 Z"/></g>
<g><path style="opacity:1" fill="#0e1c21" d="M 10.5,60.5 C 11.1667,60.5 11.5,60.8333 11.5,61.5C 8.39405,71.2243 7.72738,81.2243 9.5,91.5C 15.3094,94.7639 21.3094,97.5972 27.5,100C 28.7811,101.409 29.7811,102.909 30.5,104.5C 31.7255,105.937 32.7255,107.604 33.5,109.5C 35.5165,110.174 37.1832,111.341 38.5,113C 39.8304,112.923 41.1637,112.423 42.5,111.5C 44.7836,112.613 47.1169,113.613 49.5,114.5C 51.5292,119.66 55.1959,122.66 60.5,123.5C 59.5178,114.309 59.5178,105.142 60.5,96C 59.9681,93.9803 58.6348,93.147 56.5,93.5C 56.2627,92.209 56.596,91.209 57.5,90.5C 58.7206,91.0283 59.8873,91.695 61,92.5C 61.4996,99.4921 61.6663,106.492 61.5,113.5C 62.1031,118.619 61.4364,123.285 59.5,127.5C 58.4863,126.326 57.153,125.66 55.5,125.5C 55.0269,124.094 54.0269,123.427 52.5,123.5C 52.0269,122.094 51.0269,121.427 49.5,121.5C 49.0269,120.094 48.0269,119.427 46.5,119.5C 45.7377,117.738 44.4044,116.738 42.5,116.5C 41.9473,114.448 40.9473,114.115 39.5,115.5C 34.1295,111.821 28.7961,108.154 23.5,104.5C 18.7452,100.61 13.7452,96.9436 8.5,93.5C 7.50122,82.5202 7.16789,71.5202 7.5,60.5C 8.5,60.5 9.5,60.5 10.5,60.5 Z"/></g>
<g><path style="opacity:0.08" fill="#03070c" d="M 99.5,98.5 C 99.8329,117.179 99.4996,135.845 98.5,154.5C 97.5832,153.873 96.5832,153.539 95.5,153.5C 91.8304,151.495 88.1638,149.495 84.5,147.5C 84.5,133.167 84.5,118.833 84.5,104.5C 84.5,103.833 84.8333,103.5 85.5,103.5C 87.0269,103.573 88.0269,102.906 88.5,101.5C 90.0495,100.559 91.7162,99.8925 93.5,99.5C 95.5648,99.4828 97.5648,99.1495 99.5,98.5 Z M 95.5,100.5 C 92.4328,102.121 89.5995,104.121 87,106.5C 86.3333,119.167 86.3333,131.833 87,144.5C 89.5888,146.211 92.0888,148.045 94.5,150C 95.448,150.483 96.448,150.649 97.5,150.5C 97.2316,134.985 97.2316,119.485 97.5,104C 97.3917,102.319 96.7251,101.152 95.5,100.5 Z"/></g>
<g><path style="opacity:1" fill="#5e5e70" d="M 160.5,76.5 C 160.56,75.9569 160.893,75.6236 161.5,75.5C 162.495,80.7921 162.828,86.1254 162.5,91.5C 162.825,98.6866 162.491,105.687 161.5,112.5C 161.5,103.5 161.5,94.5 161.5,85.5C 161.81,82.2869 161.477,79.2869 160.5,76.5 Z"/></g>
<g><path style="opacity:1" fill="#172f48" d="M 77.5,122.5 C 76.8333,122.5 76.1667,122.5 75.5,122.5C 73.3337,122.579 71.3337,123.246 69.5,124.5C 68.5581,124.392 67.7247,124.059 67,123.5C 66.6827,125.301 66.016,125.634 65,124.5C 64.36,117.878 64.86,111.378 66.5,105C 65.5939,103.301 65.2606,101.467 65.5,99.5C 68.8166,99.219 71.9832,99.219 75,99.5C 75.6667,98.8333 76.3333,98.1667 77,97.5C 78.8072,99.7693 78.3072,101.603 75.5,103C 76.624,103.249 77.624,103.749 78.5,104.5C 77.5853,105.328 76.9186,106.328 76.5,107.5C 77.9995,112.458 78.3328,117.458 77.5,122.5 Z"/></g>
<g><path style="opacity:0.447" fill="#1e5662" d="M 88.5,101.5 C 88.0269,102.906 87.0269,103.573 85.5,103.5C 85.5,103.167 85.5,102.833 85.5,102.5C 86.391,101.89 87.391,101.557 88.5,101.5 Z"/></g>
<g><path style="opacity:0.968" fill="#8eb0be" d="M 108.5,98.5 C 108.833,98.5 109.167,98.5 109.5,98.5C 109.5,99.1667 109.5,99.8333 109.5,100.5C 109.5,108.833 109.5,117.167 109.5,125.5C 109.5,129.5 109.5,133.5 109.5,137.5C 109.833,138.167 110.167,138.833 110.5,139.5C 109.662,139.842 109.328,140.508 109.5,141.5C 108.833,141.5 108.167,141.5 107.5,141.5C 107.5,127.833 107.5,114.167 107.5,100.5C 107.833,99.8333 108.167,99.1667 108.5,98.5 Z"/></g>
<g><path style="opacity:1" fill="#193642" d="M 97.5,97.5 C 101.154,97.5001 104.487,98.5001 107.5,100.5C 107.5,114.167 107.5,127.833 107.5,141.5C 105.883,136.084 105.216,130.417 105.5,124.5C 103.641,124.539 102.308,123.706 101.5,122C 101.646,115.38 101.98,108.713 102.5,102C 101.629,100.636 100.629,99.4695 99.5,98.5C 97.5648,99.1495 95.5648,99.4828 93.5,99.5C 94.5137,98.3263 95.847,97.6596 97.5,97.5 Z"/></g>
<g><path style="opacity:1" fill="#136b77" d="M 42.5,116.5 C 44.4044,116.738 45.7377,117.738 46.5,119.5C 44.5956,119.262 43.2623,118.262 42.5,116.5 Z"/></g>
<g><path style="opacity:1" fill="#406380" d="M 61.5,113.5 C 61.8333,113.5 62.1667,113.5 62.5,113.5C 62.8333,113.5 63.1667,113.5 63.5,113.5C 62.8969,118.619 63.5636,123.285 65.5,127.5C 64.5,128.167 63.5,128.833 62.5,129.5C 60.9731,129.573 59.9731,128.906 59.5,127.5C 61.4364,123.285 62.1031,118.619 61.5,113.5 Z"/></g>
<g><path style="opacity:0.646" fill="#206767" d="M 42.5,116.5 C 40.5316,124.433 39.865,132.766 40.5,141.5C 39.507,133.016 39.1736,124.349 39.5,115.5C 40.9473,114.115 41.9473,114.448 42.5,116.5 Z"/></g>
<g><path style="opacity:1" fill="#168480" d="M 46.5,119.5 C 48.0269,119.427 49.0269,120.094 49.5,121.5C 47.9731,121.573 46.9731,120.906 46.5,119.5 Z"/></g>
<g><path style="opacity:1" fill="#17f9ef" d="M 42.5,116.5 C 43.2623,118.262 44.5956,119.262 46.5,119.5C 46.9731,120.906 47.9731,121.573 49.5,121.5C 49.8333,122.5 50.5,123.167 51.5,123.5C 51.9209,125.91 53.2542,127.743 55.5,129C 53.6431,130.182 52.6431,131.849 52.5,134C 53.112,137.615 54.112,141.115 55.5,144.5C 54.4783,145.354 53.6449,146.354 53,147.5C 51.6439,146.62 50.1439,146.286 48.5,146.5C 47.656,144.241 45.9893,143.241 43.5,143.5C 43.0269,142.094 42.0269,141.427 40.5,141.5C 39.865,132.766 40.5316,124.433 42.5,116.5 Z"/></g>
<g><path style="opacity:1" fill="#20868b" d="M 49.5,121.5 C 51.0269,121.427 52.0269,122.094 52.5,123.5C 52.1667,123.5 51.8333,123.5 51.5,123.5C 50.5,123.167 49.8333,122.5 49.5,121.5 Z"/></g>
<g><path style="opacity:0.765" fill="#7a8089" d="M 138.5,86.5 C 138.5,94.8333 138.5,103.167 138.5,111.5C 138.5,115.5 138.5,119.5 138.5,123.5C 146.559,120.637 154.226,116.97 161.5,112.5C 162.491,105.687 162.825,98.6866 162.5,91.5C 162.833,91.5 163.167,91.5 163.5,91.5C 163.203,98.9204 163.536,106.254 164.5,113.5C 155.692,118.07 146.692,122.403 137.5,126.5C 137.171,112.99 137.504,99.6562 138.5,86.5 Z"/></g>
<g><path style="opacity:0.998" fill="#203a4c" d="M 150.5,106.5 C 151.873,106.343 153.207,106.51 154.5,107C 156.059,109.784 158.392,111.617 161.5,112.5C 154.226,116.97 146.559,120.637 138.5,123.5C 138.5,119.5 138.5,115.5 138.5,111.5C 142.464,109.855 146.464,108.188 150.5,106.5 Z"/></g>
<g><path style="opacity:0.78" fill="#4ba1a6" d="M 84.5,104.5 C 84.5,118.833 84.5,133.167 84.5,147.5C 84.83,154.2 84.4967,160.866 83.5,167.5C 82.8933,167.376 82.56,167.043 82.5,166.5C 83.4881,161.36 83.8214,156.026 83.5,150.5C 83.1705,134.991 83.5038,119.658 84.5,104.5 Z"/></g>
<g><path style="opacity:1" fill="#1a7d7e" d="M 52.5,123.5 C 54.0269,123.427 55.0269,124.094 55.5,125.5C 53.9731,125.573 52.9731,124.906 52.5,123.5 Z"/></g>
<g><path style="opacity:0.988" fill="#1d2a33" d="M 99.5,98.5 C 100.629,99.4695 101.629,100.636 102.5,102C 101.98,108.713 101.646,115.38 101.5,122C 102.308,123.706 103.641,124.539 105.5,124.5C 105.216,130.417 105.883,136.084 107.5,141.5C 108.167,141.5 108.833,141.5 109.5,141.5C 109.631,142.376 109.298,143.043 108.5,143.5C 107.575,142.359 106.741,142.359 106,143.5C 104.045,149.88 101.545,155.88 98.5,161.5C 98.9844,158.212 97.9844,155.545 95.5,153.5C 96.5832,153.539 97.5832,153.873 98.5,154.5C 99.4996,135.845 99.8329,117.179 99.5,98.5 Z"/></g>
<g><path style="opacity:1" fill="#1e4155" d="M 134.5,88.5 C 134.56,87.9569 134.893,87.6236 135.5,87.5C 136.825,100.327 136.825,112.994 135.5,125.5C 126.822,129.506 118.156,133.506 109.5,137.5C 109.5,133.5 109.5,129.5 109.5,125.5C 114.602,123.783 119.602,121.783 124.5,119.5C 126.527,119.338 128.527,119.505 130.5,120C 131.685,121.353 133.019,122.52 134.5,123.5C 135.824,111.673 135.824,100.007 134.5,88.5 Z"/></g>
<g><path style="opacity:1" fill="#17b39d" d="M 55.5,125.5 C 57.153,125.66 58.4863,126.326 59.5,127.5C 59.9731,128.906 60.9731,129.573 62.5,129.5C 64.5648,129.483 66.5648,129.15 68.5,128.5C 72.9118,126.939 76.7452,127.939 80,131.5C 80.8323,141.849 80.6656,152.183 79.5,162.5C 78.5224,162.023 77.6891,161.357 77,160.5C 74.8797,161.605 72.7131,161.605 70.5,160.5C 66.3171,158.913 62.6505,156.579 59.5,153.5C 61.8273,153.247 63.8273,153.914 65.5,155.5C 66.1835,155.137 66.8501,154.804 67.5,154.5C 68.1408,156.042 69.1408,157.376 70.5,158.5C 71.8802,157.024 73.5469,156.024 75.5,155.5C 76.775,150.129 76.6083,144.795 75,139.5C 74.3763,137.246 73.043,135.579 71,134.5C 70.51,133.207 70.3433,131.873 70.5,130.5C 67.5,130.5 64.5,130.5 61.5,130.5C 58.7122,129.774 56.7122,128.107 55.5,125.5 Z"/></g>
<g><path style="opacity:0.702" fill="#828f9a" d="M 135.5,125.5 C 135.842,126.338 136.508,126.672 137.5,126.5C 128.412,130.543 119.412,134.877 110.5,139.5C 110.167,138.833 109.833,138.167 109.5,137.5C 118.156,133.506 126.822,129.506 135.5,125.5 Z"/></g>
<g><path style="opacity:0.722" fill="#208887" d="M 40.5,141.5 C 42.0269,141.427 43.0269,142.094 43.5,143.5C 41.9731,143.573 40.9731,142.906 40.5,141.5 Z"/></g>
<g><path style="opacity:0.98" fill="#25bab7" d="M 43.5,143.5 C 45.9893,143.241 47.656,144.241 48.5,146.5C 46.5659,145.89 44.8993,144.89 43.5,143.5 Z"/></g>
<g><path style="opacity:1" fill="#18e8d2" d="M 51.5,123.5 C 51.8333,123.5 52.1667,123.5 52.5,123.5C 52.9731,124.906 53.9731,125.573 55.5,125.5C 56.7122,128.107 58.7122,129.774 61.5,130.5C 62.9126,134.277 64.7459,137.943 67,141.5C 68.6431,145.811 68.8097,150.144 67.5,154.5C 66.8501,154.804 66.1835,155.137 65.5,155.5C 63.8273,153.914 61.8273,153.247 59.5,153.5C 59.0269,152.094 58.0269,151.427 56.5,151.5C 53.8252,149.83 51.1586,148.164 48.5,146.5C 50.1439,146.286 51.6439,146.62 53,147.5C 53.6449,146.354 54.4783,145.354 55.5,144.5C 54.112,141.115 53.112,137.615 52.5,134C 52.6431,131.849 53.6431,130.182 55.5,129C 53.2542,127.743 51.9209,125.91 51.5,123.5 Z"/></g>
<g><path style="opacity:0.773" fill="#258e8c" d="M 56.5,151.5 C 58.0269,151.427 59.0269,152.094 59.5,153.5C 57.9731,153.573 56.9731,152.906 56.5,151.5 Z"/></g>
<g><path style="opacity:1" fill="#13ccb1" d="M 61.5,130.5 C 64.5,130.5 67.5,130.5 70.5,130.5C 70.3433,131.873 70.51,133.207 71,134.5C 73.043,135.579 74.3763,137.246 75,139.5C 76.6083,144.795 76.775,150.129 75.5,155.5C 73.5469,156.024 71.8802,157.024 70.5,158.5C 69.1408,157.376 68.1408,156.042 67.5,154.5C 68.8097,150.144 68.6431,145.811 67,141.5C 64.7459,137.943 62.9126,134.277 61.5,130.5 Z"/></g>
<g><path style="opacity:1" fill="#19414d" d="M 84.5,147.5 C 88.1638,149.495 91.8304,151.495 95.5,153.5C 97.9844,155.545 98.9844,158.212 98.5,161.5C 92.8174,167.086 86.1507,168.92 78.5,167C 77.6195,166.292 76.9528,165.458 76.5,164.5C 78.3146,165.63 80.3146,166.296 82.5,166.5C 82.56,167.043 82.8933,167.376 83.5,167.5C 84.4967,160.866 84.83,154.2 84.5,147.5 Z"/></g>
<g><path style="opacity:1" fill="#1b998f" d="M 83.5,150.5 C 83.8214,156.026 83.4881,161.36 82.5,166.5C 80.3146,166.296 78.3146,165.63 76.5,164.5C 74.1475,163.66 72.1475,162.326 70.5,160.5C 72.7131,161.605 74.8797,161.605 77,160.5C 77.6891,161.357 78.5224,162.023 79.5,162.5C 80.6656,152.183 80.8323,141.849 80,131.5C 76.7452,127.939 72.9118,126.939 68.5,128.5C 72.8168,126.06 77.4834,124.393 82.5,123.5C 82.1734,132.682 82.5067,141.682 83.5,150.5 Z"/></g>
</svg>
