<?xml version="1.0" encoding="UTF-8"?>
<!DOCTYPE svg PUBLIC "-//W3C//DTD SVG 1.1//EN" "http://www.w3.org/Graphics/SVG/1.1/DTD/svg11.dtd">
<svg xmlns="http://www.w3.org/2000/svg" version="1.1" width="309px" height="310px" style="shape-rendering:geometricPrecision; text-rendering:geometricPrecision; image-rendering:optimizeQuality; fill-rule:evenodd; clip-rule:evenodd" xmlns:xlink="http://www.w3.org/1999/xlink">
<g><path style="opacity:1" fill="#1f1f32" d="M 179.5,13.5 C 178.022,13.238 176.689,13.5713 175.5,14.5C 175.624,15.1067 175.957,15.44 176.5,15.5C 177.441,17.0495 178.107,18.7162 178.5,20.5C 179.35,27.7985 179.683,35.1319 179.5,42.5C 178.883,42.3893 178.383,42.056 178,41.5C 177.718,45.0395 177.218,48.5395 176.5,52C 178.192,56.4987 179.359,60.9987 180,65.5C 179.71,63.9559 179.044,62.6226 178,61.5C 168.577,62.3197 159.077,62.8197 149.5,63C 147.5,63.3333 145.5,63.6667 143.5,64C 142.663,65.0113 142.33,66.1779 142.5,67.5C 141.178,67.67 140.011,67.3366 139,66.5C 138.521,68.646 137.188,69.646 135,69.5C 131.306,69.2922 128.139,67.9588 125.5,65.5C 126.381,64.0295 127.714,63.1962 129.5,63C 128.047,61.3513 127.047,59.5179 126.5,57.5C 127.65,49.3693 127.65,41.2026 126.5,33C 126.575,27.9504 127.575,23.117 129.5,18.5C 130.479,17.2347 131.479,15.9014 132.5,14.5C 131.675,13.6143 130.675,13.281 129.5,13.5C 133.63,10.2255 137.963,7.05881 142.5,4C 154.973,-0.152063 165.639,2.5146 174.5,12C 176.382,12.1981 178.048,12.6981 179.5,13.5 Z"/></g>
<g><path style="opacity:0.969" fill="#b0afb1" d="M 129.5,13.5 C 130.675,13.281 131.675,13.6143 132.5,14.5C 131.479,15.9014 130.479,17.2347 129.5,18.5C 129.5,17.5 129.5,16.5 129.5,15.5C 127.833,15.5 126.167,15.5 124.5,15.5C 124.5,15.1667 124.5,14.8333 124.5,14.5C 125.919,13.5489 127.585,13.2155 129.5,13.5 Z"/></g>
<g><path style="opacity:0.973" fill="#8c8c8e" d="M 179.5,13.5 C 181.099,13.2322 182.432,13.5655 183.5,14.5C 180.941,14.1984 178.607,14.5318 176.5,15.5C 175.957,15.44 175.624,15.1067 175.5,14.5C 176.689,13.5713 178.022,13.238 179.5,13.5 Z"/></g>
<g><path style="opacity:1" fill="#f4f4f5" d="M 124.5,15.5 C 126.167,15.5 127.833,15.5 129.5,15.5C 129.5,16.5 129.5,17.5 129.5,18.5C 127.575,23.117 126.575,27.9504 126.5,33C 127.65,41.2026 127.65,49.3693 126.5,57.5C 124.882,62.5343 121.882,66.7009 117.5,70C 111.592,72.5349 106.092,75.7016 101,79.5C 97.8763,86.4471 96.2097,93.7804 96,101.5C 94.9245,104.894 93.7578,108.228 92.5,111.5C 90.8958,112.287 90.2291,113.62 90.5,115.5C 83.5,123.5 76.5,131.5 69.5,139.5C 68.9569,139.56 68.6236,139.893 68.5,140.5C 69.2427,141.182 69.9094,141.849 70.5,142.5C 65.5865,142.725 61.9198,145.059 59.5,149.5C 58.5,149.833 57.8333,150.5 57.5,151.5C 55.7041,152.793 54.0375,154.293 52.5,156C 48.7487,156.749 45.082,157.749 41.5,159C 40.1387,160.584 39.472,162.418 39.5,164.5C 42.9288,162.749 46.5955,162.249 50.5,163C 46.4333,165.399 43.4333,168.732 41.5,173C 41.8333,173.5 42.1667,174 42.5,174.5C 44.1487,173.352 45.6487,172.019 47,170.5C 47.1405,172.256 46.6405,173.922 45.5,175.5C 46,175.833 46.5,176.167 47,176.5C 48.6449,174.855 50.3116,173.188 52,171.5C 49.5958,178.412 50.9291,179.079 56,173.5C 57,171.5 58,169.5 59,167.5C 60.1096,165.963 61.6096,165.297 63.5,165.5C 63.3535,168.443 62.6868,171.276 61.5,174C 61.8333,174.5 62.1667,175 62.5,175.5C 65.1875,172.638 67.5209,169.472 69.5,166C 76.8975,164.317 84.2308,162.317 91.5,160C 95.2748,158.389 98.2748,155.889 100.5,152.5C 103.797,149.704 106.964,146.704 110,143.5C 111.237,147.06 111.737,150.727 111.5,154.5C 110.208,156.255 109.208,158.255 108.5,160.5C 106.739,161.035 105.406,162.035 104.5,163.5C 95.6572,169.175 85.9905,173.008 75.5,175C 74.7476,175.671 74.4142,176.504 74.5,177.5C 73.5,179.167 72.1667,180.5 70.5,181.5C 68.847,181.66 67.5137,182.326 66.5,183.5C 54.822,186.844 43.4887,186.011 32.5,181C 30.8047,178.776 29.8047,176.276 29.5,173.5C 30.3792,170.188 30.5459,166.855 30,163.5C 25.7741,162.395 25.6074,161.062 29.5,159.5C 31.11,157.275 32.4434,154.941 33.5,152.5C 37.7076,150.858 42.041,149.358 46.5,148C 57.0351,137.966 67.0351,127.466 76.5,116.5C 79.9182,113.561 82.4182,109.894 84,105.5C 86.1304,96.115 88.2971,86.7817 90.5,77.5C 93.8333,73.5 97.5,69.8333 101.5,66.5C 103.848,66.4077 105.514,65.4077 106.5,63.5C 108.483,63.8432 109.817,63.1765 110.5,61.5C 113.091,60.7457 114.924,59.079 116,56.5C 117.237,45.8914 117.903,35.2247 118,24.5C 118.242,19.9868 120.408,16.9868 124.5,15.5 Z"/></g>
<g><path style="opacity:1" fill="#f1f1f1" d="M 183.5,14.5 C 184.5,16.8333 186.167,18.5 188.5,19.5C 189.913,22.2186 190.58,25.2186 190.5,28.5C 189.579,37.9989 189.579,47.3322 190.5,56.5C 195.89,61.0437 201.89,64.8771 208.5,68C 210.041,69.3712 211.375,70.8712 212.5,72.5C 212.738,74.4044 213.738,75.7377 215.5,76.5C 215.427,78.0269 216.094,79.0269 217.5,79.5C 217.565,82.4282 218.232,85.0948 219.5,87.5C 220.4,92.3322 221.066,97.3322 221.5,102.5C 221.12,104.698 221.787,106.365 223.5,107.5C 224.674,108.514 225.34,109.847 225.5,111.5C 225.738,113.404 226.738,114.738 228.5,115.5C 228.833,117.833 230.167,119.167 232.5,119.5C 233.5,119.833 234.167,120.5 234.5,121.5C 235.08,123.749 236.413,125.415 238.5,126.5C 240.833,128.167 242.833,130.167 244.5,132.5C 245.833,135.833 248.167,138.167 251.5,139.5C 254.545,142.547 257.878,145.213 261.5,147.5C 262.552,149.256 264.219,149.923 266.5,149.5C 268.553,149.402 270.22,150.069 271.5,151.5C 272.167,153.5 273.5,154.833 275.5,155.5C 276.674,156.514 277.34,157.847 277.5,159.5C 276.68,165.797 276.347,172.131 276.5,178.5C 267.568,185.033 257.568,187.2 246.5,185C 239.954,183.9 234.954,180.567 231.5,175C 222.662,173.415 214.328,170.415 206.5,166C 202.756,165.236 200.423,166.736 199.5,170.5C 201.575,191.354 200.575,212.021 196.5,232.5C 194.32,235.381 193.32,238.714 193.5,242.5C 189.655,251.356 185.988,260.356 182.5,269.5C 182.672,270.492 182.338,271.158 181.5,271.5C 179.992,273.181 178.992,275.181 178.5,277.5C 175.025,283.103 171.525,288.769 168,294.5C 164.187,299.16 159.687,302.827 154.5,305.5C 155.663,301.518 156.829,297.518 158,293.5C 161.78,286.937 165.28,280.271 168.5,273.5C 171.086,269.329 173.42,264.996 175.5,260.5C 188.924,232.112 192.924,202.445 187.5,171.5C 187.5,162.167 187.5,152.833 187.5,143.5C 188.092,140.873 188.425,138.206 188.5,135.5C 189.552,135.351 190.552,135.517 191.5,136C 195.032,140.36 198.699,144.527 202.5,148.5C 211.103,159.304 222.437,165.137 236.5,166C 239.296,169.114 241.962,172.281 244.5,175.5C 244.833,175.167 245.167,174.833 245.5,174.5C 243.714,171.596 243.381,168.596 244.5,165.5C 244.833,165.667 245.167,165.833 245.5,166C 248.643,170.444 252.143,174.611 256,178.5C 255.948,176.089 255.615,173.756 255,171.5C 256.46,173.466 258.127,175.132 260,176.5C 260.5,176.167 261,175.833 261.5,175.5C 260.36,173.922 259.86,172.256 260,170.5C 265.349,175.97 266.349,175.303 263,168.5C 254.031,162.359 254.864,161.026 265.5,164.5C 266.833,162.833 266.833,161.167 265.5,159.5C 261.56,158.145 257.56,156.978 253.5,156C 252.837,154.482 251.837,153.315 250.5,152.5C 249.167,151.833 247.833,151.167 246.5,150.5C 246.985,148.915 246.319,147.415 244.5,146C 238.566,145.409 232.9,143.909 227.5,141.5C 227.842,140.662 228.508,140.328 229.5,140.5C 233.025,142.132 236.692,142.966 240.5,143C 232.295,134.464 224.462,125.631 217,116.5C 211.561,106.54 208.895,95.8737 209,84.5C 208.722,83.5842 208.222,82.9175 207.5,82.5C 207.141,80.629 206.141,79.129 204.5,78C 199.921,75.4748 195.254,73.1414 190.5,71C 184.749,67.0038 181.416,61.5038 180.5,54.5C 180.434,47.4825 180.768,40.4825 181.5,33.5C 181.573,28.8008 180.573,24.4674 178.5,20.5C 178.107,18.7162 177.441,17.0495 176.5,15.5C 178.607,14.5318 180.941,14.1984 183.5,14.5 Z"/></g>
<g><path style="opacity:0.576" fill="#585858" d="M 183.5,14.5 C 186.167,15.1667 187.833,16.8333 188.5,19.5C 186.167,18.5 184.5,16.8333 183.5,14.5 Z"/></g>
<g><path style="opacity:0.056" fill="#1d1d1d" d="M 124.5,14.5 C 124.5,14.8333 124.5,15.1667 124.5,15.5C 120.408,16.9868 118.242,19.9868 118,24.5C 117.903,35.2247 117.237,45.8914 116,56.5C 114.924,59.079 113.091,60.7457 110.5,61.5C 113.623,58.9238 115.457,55.5904 116,51.5C 116.527,45.6556 116.361,39.8223 115.5,34C 115.817,29.0797 116.651,24.2464 118,19.5C 119.191,16.4659 121.358,14.7993 124.5,14.5 Z"/></g>
<g><path style="opacity:1" fill="#5d5c6a" d="M 178.5,20.5 C 180.573,24.4674 181.573,28.8008 181.5,33.5C 180.768,40.4825 180.434,47.4825 180.5,54.5C 179.517,50.7016 179.183,46.7016 179.5,42.5C 179.683,35.1319 179.35,27.7985 178.5,20.5 Z"/></g>
<g><path style="opacity:1" fill="#e3e4e6" d="M 138.5,32.5 C 143.501,31.6714 145.668,33.6714 145,38.5C 141.109,41.652 138.276,40.9853 136.5,36.5C 136.752,34.9271 137.418,33.5938 138.5,32.5 Z"/></g>
<g><path style="opacity:1" fill="#eff0f1" d="M 163.5,32.5 C 170.536,31.6026 172.203,34.1026 168.5,40C 162.785,40.401 161.119,37.901 163.5,32.5 Z"/></g>
<g><path style="opacity:0.427" fill="#525353" d="M 190.5,28.5 C 191.022,37.6556 191.022,46.9889 190.5,56.5C 189.579,47.3322 189.579,37.9989 190.5,28.5 Z"/></g>
<g><path style="opacity:1" fill="#25243a" d="M 179.5,42.5 C 179.183,46.7016 179.517,50.7016 180.5,54.5C 181.416,61.5038 184.749,67.0038 190.5,71C 195.254,73.1414 199.921,75.4748 204.5,78C 206.141,79.129 207.141,80.629 207.5,82.5C 209.096,87.8168 208.762,92.9834 206.5,98C 207.602,100.401 207.769,102.901 207,105.5C 204.291,106.706 202.625,105.706 202,102.5C 201.801,104.402 200.967,105.902 199.5,107C 201.136,108.434 202.136,110.267 202.5,112.5C 201.895,114.481 200.895,114.815 199.5,113.5C 197.941,114.447 196.274,115.113 194.5,115.5C 191.858,114.373 189.191,114.373 186.5,115.5C 185.006,115.291 183.839,114.624 183,113.5C 181.954,115.09 180.787,116.59 179.5,118C 176.009,118.273 172.509,119.44 169,121.5C 168.167,121.333 167.333,121.167 166.5,121C 167.833,120.667 169.167,120.333 170.5,120C 167.518,119.502 164.518,119.335 161.5,119.5C 161.872,122.022 161.039,124.022 159,125.5C 158.505,123.527 158.338,121.527 158.5,119.5C 157.167,119.5 155.833,119.5 154.5,119.5C 154.5,122.167 154.5,124.833 154.5,127.5C 151.843,127.838 149.51,127.171 147.5,125.5C 148.5,124.833 149.5,124.167 150.5,123.5C 149.009,122.756 147.509,122.09 146,121.5C 145.667,121.833 145.333,122.167 145,122.5C 144.309,119.409 142.476,118.243 139.5,119C 141.604,121.744 142.271,124.577 141.5,127.5C 138.864,124.69 136.364,121.69 134,118.5C 133.833,118.833 133.667,119.167 133.5,119.5C 135.465,123.452 137.798,127.119 140.5,130.5C 138.883,131.589 138.05,133.256 138,135.5C 135.881,133.258 133.381,132.925 130.5,134.5C 127.792,133.959 125.126,133.292 122.5,132.5C 122.167,133.167 121.833,133.833 121.5,134.5C 120.808,133.975 120.308,133.308 120,132.5C 119.626,133.416 119.126,134.25 118.5,135C 119.827,142.265 119.827,149.432 118.5,156.5C 118.83,149.8 118.497,143.134 117.5,136.5C 111.93,140.691 110.597,145.857 113.5,152C 111.85,155.412 112.183,158.578 114.5,161.5C 113.25,161.423 112.417,160.756 112,159.5C 111.506,157.866 111.34,156.199 111.5,154.5C 111.737,150.727 111.237,147.06 110,143.5C 106.964,146.704 103.797,149.704 100.5,152.5C 99.2153,150.548 97.5486,148.882 95.5,147.5C 96.3065,146.272 97.3065,145.272 98.5,144.5C 101.681,143.651 104.348,141.985 106.5,139.5C 106.942,143.847 107.775,144.18 109,140.5C 110.557,141.205 111.723,140.539 112.5,138.5C 111.726,137.289 110.893,137.289 110,138.5C 109.503,136.19 109.337,133.857 109.5,131.5C 108.325,131.719 107.325,131.386 106.5,130.5C 107.306,127.72 106.306,127.053 103.5,128.5C 105.132,124.975 105.966,121.308 106,117.5C 105.102,120.069 103.935,122.402 102.5,124.5C 102.741,121.001 101.908,120.668 100,123.5C 99.6667,125.167 99.3333,126.833 99,128.5C 95.8437,126.625 93.3437,127.625 91.5,131.5C 85.3853,135.554 78.7186,138.554 71.5,140.5C 70.5836,140.457 69.9169,140.124 69.5,139.5C 76.5,131.5 83.5,123.5 90.5,115.5C 95.9277,112.604 99.4277,108.271 101,102.5C 98.3333,105.833 95.6667,109.167 93,112.5C 92.6012,112.272 92.4346,111.938 92.5,111.5C 93.7578,108.228 94.9245,104.894 96,101.5C 96.2097,93.7804 97.8763,86.4471 101,79.5C 106.092,75.7016 111.592,72.5349 117.5,70C 121.882,66.7009 124.882,62.5343 126.5,57.5C 127.047,59.5179 128.047,61.3513 129.5,63C 127.714,63.1962 126.381,64.0295 125.5,65.5C 128.139,67.9588 131.306,69.2922 135,69.5C 137.188,69.646 138.521,68.646 139,66.5C 140.011,67.3366 141.178,67.67 142.5,67.5C 142.33,66.1779 142.663,65.0113 143.5,64C 145.5,63.6667 147.5,63.3333 149.5,63C 159.077,62.8197 168.577,62.3197 178,61.5C 179.044,62.6226 179.71,63.9559 180,65.5C 179.359,60.9987 178.192,56.4987 176.5,52C 177.218,48.5395 177.718,45.0395 178,41.5C 178.383,42.056 178.883,42.3893 179.5,42.5 Z"/></g>
<g><path style="opacity:0.886" fill="#757776" d="M 110.5,61.5 C 109.817,63.1765 108.483,63.8432 106.5,63.5C 107.514,62.3263 108.847,61.6596 110.5,61.5 Z"/></g>
<g><path style="opacity:0.478" fill="#474848" d="M 106.5,63.5 C 105.514,65.4077 103.848,66.4077 101.5,66.5C 102.659,64.7497 104.326,63.7497 106.5,63.5 Z"/></g>
<g><path style="opacity:0.353" fill="#2b2d2c" d="M 101.5,66.5 C 97.5,69.8333 93.8333,73.5 90.5,77.5C 92.5,72.1667 96.1667,68.5 101.5,66.5 Z"/></g>
<g><path style="opacity:0.761" fill="#656868" d="M 212.5,72.5 C 214.262,73.2623 215.262,74.5956 215.5,76.5C 213.738,75.7377 212.738,74.4044 212.5,72.5 Z"/></g>
<g><path style="opacity:0.447" fill="#4c504f" d="M 215.5,76.5 C 216.906,76.9731 217.573,77.9731 217.5,79.5C 216.094,79.0269 215.427,78.0269 215.5,76.5 Z"/></g>
<g><path style="opacity:0.776" fill="#696c6c" d="M 217.5,79.5 C 219.04,81.8383 219.706,84.5049 219.5,87.5C 218.232,85.0948 217.565,82.4282 217.5,79.5 Z"/></g>
<g><path style="opacity:1" fill="#babac1" d="M 191.5,82.5 C 192.5,82.5 193.5,82.5 194.5,82.5C 193.754,86.31 192.754,86.31 191.5,82.5 Z"/></g>
<g><path style="opacity:1" fill="#c6c6ca" d="M 123.5,89.5 C 125.465,89.9483 125.798,90.9483 124.5,92.5C 123.614,91.675 123.281,90.675 123.5,89.5 Z"/></g>
<g><path style="opacity:1" fill="#b7b6bc" d="M 172.5,75.5 C 173.043,75.56 173.376,75.8933 173.5,76.5C 169.331,82.1663 164.664,87.333 159.5,92C 152.881,94.2963 147.214,92.7963 142.5,87.5C 144.61,87.2936 146.61,88.1269 148.5,90C 153.111,91.007 157.445,90.3403 161.5,88C 165.747,84.2583 169.414,80.0917 172.5,75.5 Z"/></g>
<g><path style="opacity:1" fill="#9997a2" d="M 172.5,90.5 C 174.337,90.6395 174.67,91.3061 173.5,92.5C 172.702,92.0431 172.369,91.3764 172.5,90.5 Z"/></g>
<g><path style="opacity:0.177" fill="#151717" d="M 90.5,77.5 C 88.2971,86.7817 86.1304,96.115 84,105.5C 82.4182,109.894 79.9182,113.561 76.5,116.5C 83.2874,106.634 86.7874,95.6343 87,83.5C 87.4238,80.9746 88.5905,78.9746 90.5,77.5 Z"/></g>
<g><path style="opacity:1" fill="#868590" d="M 143.5,98.5 C 142.833,98.5 142.5,98.8333 142.5,99.5C 140.777,97.7472 139.277,95.7472 138,93.5C 137.333,92.5 137.333,91.5 138,90.5C 139.596,93.3695 141.43,96.0361 143.5,98.5 Z"/></g>
<g><path style="opacity:1" fill="#c2c2c9" d="M 185.5,96.5 C 186.675,96.281 187.675,96.6143 188.5,97.5C 186.948,98.7979 185.948,98.4646 185.5,96.5 Z"/></g>
<g><path style="opacity:1" fill="#a5a3ac" d="M 118.5,101.5 C 119.5,101.5 120.5,101.5 121.5,101.5C 121.5,102.5 121.5,103.5 121.5,104.5C 120.5,104.5 119.5,104.5 118.5,104.5C 118.5,103.5 118.5,102.5 118.5,101.5 Z"/></g>
<g><path style="opacity:1" fill="#bebdc4" d="M 142.5,99.5 C 142.5,98.8333 142.833,98.5 143.5,98.5C 150.713,105.492 157.547,105.159 164,97.5C 162.486,102.382 158.986,105.049 153.5,105.5C 148.853,105.163 145.186,103.163 142.5,99.5 Z"/></g>
<g><path style="opacity:0.788" fill="#6e7170" d="M 221.5,102.5 C 222.537,103.93 223.204,105.597 223.5,107.5C 221.787,106.365 221.12,104.698 221.5,102.5 Z"/></g>
<g><path style="opacity:1" fill="#7d7a87" d="M 90.5,115.5 C 90.2291,113.62 90.8958,112.287 92.5,111.5C 92.4346,111.938 92.6012,112.272 93,112.5C 95.6667,109.167 98.3333,105.833 101,102.5C 99.4277,108.271 95.9277,112.604 90.5,115.5 Z"/></g>
<g><path style="opacity:1" fill="#a1a0aa" d="M 182.5,107.5 C 184.465,107.948 184.798,108.948 183.5,110.5C 182.614,109.675 182.281,108.675 182.5,107.5 Z"/></g>
<g><path style="opacity:1" fill="#9997a2" d="M 146.5,110.5 C 146.735,109.903 147.235,109.57 148,109.5C 152.127,110.239 156.294,110.739 160.5,111C 155.819,112.947 151.153,112.781 146.5,110.5 Z"/></g>
<g><path style="opacity:0.769" fill="#616666" d="M 225.5,111.5 C 227.262,112.262 228.262,113.596 228.5,115.5C 226.738,114.738 225.738,113.404 225.5,111.5 Z"/></g>
<g><path style="opacity:0.839" fill="#6c7271" d="M 228.5,115.5 C 230.167,116.5 231.5,117.833 232.5,119.5C 230.167,119.167 228.833,117.833 228.5,115.5 Z"/></g>
<g><path style="opacity:0.745" fill="#595d5d" d="M 234.5,121.5 C 236.587,122.585 237.92,124.251 238.5,126.5C 236.413,125.415 235.08,123.749 234.5,121.5 Z"/></g>
<g><path style="opacity:1" fill="#2e2a44" d="M 207.5,82.5 C 208.222,82.9175 208.722,83.5842 209,84.5C 208.895,95.8737 211.561,106.54 217,116.5C 224.462,125.631 232.295,134.464 240.5,143C 236.692,142.966 233.025,142.132 229.5,140.5C 223.787,138.146 218.121,135.479 212.5,132.5C 211.326,133.514 210.66,134.847 210.5,136.5C 209.115,135.426 207.949,134.093 207,132.5C 208.113,138.455 211.613,142.455 217.5,144.5C 219.54,145.942 221.873,146.942 224.5,147.5C 225.429,148.689 225.762,150.022 225.5,151.5C 219.527,150.972 213.861,150.972 208.5,151.5C 207.708,149.474 205.708,148.474 202.5,148.5C 198.699,144.527 195.032,140.36 191.5,136C 190.552,135.517 189.552,135.351 188.5,135.5C 188.425,138.206 188.092,140.873 187.5,143.5C 186.672,149.319 186.172,155.319 186,161.5C 185.506,159.866 185.34,158.199 185.5,156.5C 179.839,155.993 174.172,156.66 168.5,158.5C 166.484,157.822 164.484,157.156 162.5,156.5C 165.494,147.199 168.994,138.199 173,129.5C 167.728,137.378 163.561,145.712 160.5,154.5C 159.883,154.389 159.383,154.056 159,153.5C 158.223,155.215 156.89,156.215 155,156.5C 152.08,156.084 149.414,155.084 147,153.5C 144.575,154.261 143.242,155.928 143,158.5C 142.333,157.833 141.667,157.167 141,156.5C 138.667,157.167 136.333,157.833 134,158.5C 132.509,156.996 130.676,156.163 128.5,156C 127.299,155.097 126.465,153.931 126,152.5C 125.667,152.833 125.333,153.167 125,153.5C 123.883,152.051 123.216,150.384 123,148.5C 122.59,149.901 122.09,151.234 121.5,152.5C 121.666,156.846 121.499,161.179 121,165.5C 120.722,166.416 120.222,167.082 119.5,167.5C 119.5,165.833 119.5,164.167 119.5,162.5C 117.585,162.784 115.919,162.451 114.5,161.5C 115.496,161.586 116.329,161.252 117,160.5C 117.21,158.942 117.71,157.609 118.5,156.5C 119.827,149.432 119.827,142.265 118.5,135C 119.126,134.25 119.626,133.416 120,132.5C 120.308,133.308 120.808,133.975 121.5,134.5C 121.833,133.833 122.167,133.167 122.5,132.5C 125.126,133.292 127.792,133.959 130.5,134.5C 133.381,132.925 135.881,133.258 138,135.5C 138.05,133.256 138.883,131.589 140.5,130.5C 143.93,133.717 147.93,135.55 152.5,136C 148.077,134.125 144.411,131.291 141.5,127.5C 142.271,124.577 141.604,121.744 139.5,119C 142.476,118.243 144.309,119.409 145,122.5C 145.333,122.167 145.667,121.833 146,121.5C 147.509,122.09 149.009,122.756 150.5,123.5C 149.5,124.167 148.5,124.833 147.5,125.5C 149.51,127.171 151.843,127.838 154.5,127.5C 154.5,124.833 154.5,122.167 154.5,119.5C 155.833,119.5 157.167,119.5 158.5,119.5C 158.338,121.527 158.505,123.527 159,125.5C 161.039,124.022 161.872,122.022 161.5,119.5C 164.518,119.335 167.518,119.502 170.5,120C 169.167,120.333 167.833,120.667 166.5,121C 167.333,121.167 168.167,121.333 169,121.5C 172.509,119.44 176.009,118.273 179.5,118C 180.787,116.59 181.954,115.09 183,113.5C 183.839,114.624 185.006,115.291 186.5,115.5C 189.191,114.373 191.858,114.373 194.5,115.5C 196.274,115.113 197.941,114.447 199.5,113.5C 200.895,114.815 201.895,114.481 202.5,112.5C 202.136,110.267 201.136,108.434 199.5,107C 200.967,105.902 201.801,104.402 202,102.5C 202.625,105.706 204.291,106.706 207,105.5C 207.769,102.901 207.602,100.401 206.5,98C 208.762,92.9834 209.096,87.8168 207.5,82.5 Z"/></g>
<g><path style="opacity:1" fill="#c9c9cf" d="M 155.5,122.5 C 157.465,122.948 157.798,123.948 156.5,125.5C 155.614,124.675 155.281,123.675 155.5,122.5 Z"/></g>
<g><path style="opacity:1" fill="#9794a1" d="M 205.5,112.5 C 209.974,119.14 215.641,124.64 222.5,129C 220.212,129.418 218.212,128.751 216.5,127C 211.401,123.092 207.735,118.259 205.5,112.5 Z"/></g>
<g><path style="opacity:1" fill="#b4b3bb" d="M 141.5,127.5 C 144.411,131.291 148.077,134.125 152.5,136C 147.93,135.55 143.93,133.717 140.5,130.5C 137.798,127.119 135.465,123.452 133.5,119.5C 133.667,119.167 133.833,118.833 134,118.5C 136.364,121.69 138.864,124.69 141.5,127.5 Z"/></g>
<g><path style="opacity:1" fill="#b1b1b9" d="M 181.5,125.5 C 183.465,125.948 183.798,126.948 182.5,128.5C 181.614,127.675 181.281,126.675 181.5,125.5 Z"/></g>
<g><path style="opacity:0.275" fill="#353737" d="M 76.5,116.5 C 67.0351,127.466 57.0351,137.966 46.5,148C 42.041,149.358 37.7076,150.858 33.5,152.5C 33.9528,151.542 34.6195,150.708 35.5,150C 38.8931,149.202 42.2265,148.202 45.5,147C 55.6479,136.686 65.9813,126.519 76.5,116.5 Z"/></g>
<g><path style="opacity:1" fill="#94919c" d="M 103.5,128.5 C 101.227,133.183 97.8938,137.016 93.5,140C 92.5,140.667 91.5,140.667 90.5,140C 97.0262,136.777 101.026,131.611 102.5,124.5C 103.935,122.402 105.102,120.069 106,117.5C 105.966,121.308 105.132,124.975 103.5,128.5 Z"/></g>
<g><path style="opacity:0.741" fill="#4b504f" d="M 244.5,132.5 C 247.167,134.5 249.5,136.833 251.5,139.5C 248.167,138.167 245.833,135.833 244.5,132.5 Z"/></g>
<g><path style="opacity:1" fill="#8a8799" d="M 212.5,132.5 C 218.121,135.479 223.787,138.146 229.5,140.5C 228.508,140.328 227.842,140.662 227.5,141.5C 222.735,139.618 218.068,137.452 213.5,135C 212.748,134.329 212.414,133.496 212.5,132.5 Z"/></g>
<g><path style="opacity:1" fill="#adaab4" d="M 91.5,131.5 C 85.5074,136.997 78.5074,140.664 70.5,142.5C 69.9094,141.849 69.2427,141.182 68.5,140.5C 68.6236,139.893 68.9569,139.56 69.5,139.5C 69.9169,140.124 70.5836,140.457 71.5,140.5C 78.7186,138.554 85.3853,135.554 91.5,131.5 Z"/></g>
<g><path style="opacity:1" fill="#93909c" d="M 210.5,136.5 C 212.654,139.805 215.654,142.305 219.5,144C 218.906,144.464 218.239,144.631 217.5,144.5C 211.613,142.455 208.113,138.455 207,132.5C 207.949,134.093 209.115,135.426 210.5,136.5 Z"/></g>
<g><path style="opacity:1" fill="#8d8896" d="M 106.5,139.5 C 104.348,141.985 101.681,143.651 98.5,144.5C 101.021,142.299 103.521,139.966 106,137.5C 106.464,138.094 106.631,138.761 106.5,139.5 Z"/></g>
<g><path style="opacity:1" fill="#352e4e" d="M 102.5,124.5 C 101.026,131.611 97.0262,136.777 90.5,140C 91.5,140.667 92.5,140.667 93.5,140C 97.8938,137.016 101.227,133.183 103.5,128.5C 106.306,127.053 107.306,127.72 106.5,130.5C 107.325,131.386 108.325,131.719 109.5,131.5C 109.337,133.857 109.503,136.19 110,138.5C 110.893,137.289 111.726,137.289 112.5,138.5C 111.723,140.539 110.557,141.205 109,140.5C 107.775,144.18 106.942,143.847 106.5,139.5C 106.631,138.761 106.464,138.094 106,137.5C 103.521,139.966 101.021,142.299 98.5,144.5C 89.9255,147.367 81.2589,149.367 72.5,150.5C 67.9677,150.818 63.6344,150.485 59.5,149.5C 61.9198,145.059 65.5865,142.725 70.5,142.5C 78.5074,140.664 85.5074,136.997 91.5,131.5C 93.3437,127.625 95.8437,126.625 99,128.5C 99.3333,126.833 99.6667,125.167 100,123.5C 101.908,120.668 102.741,121.001 102.5,124.5 Z"/></g>
<g><path style="opacity:1" fill="#b7b7bf" d="M 131.5,144.5 C 133.337,144.639 133.67,145.306 132.5,146.5C 131.702,146.043 131.369,145.376 131.5,144.5 Z"/></g>
<g><path style="opacity:1" fill="#c0bfc8" d="M 178.5,145.5 C 180.048,145.821 180.715,146.821 180.5,148.5C 177.752,148.598 177.086,147.598 178.5,145.5 Z"/></g>
<g><path style="opacity:0.725" fill="#646968" d="M 261.5,147.5 C 263.403,147.796 265.07,148.463 266.5,149.5C 264.219,149.923 262.552,149.256 261.5,147.5 Z"/></g>
<g><path style="opacity:1" fill="#bab7c4" d="M 59.5,149.5 C 63.6344,150.485 67.9677,150.818 72.5,150.5C 73.1667,150.5 73.5,150.833 73.5,151.5C 71.095,151.866 68.7617,152.533 66.5,153.5C 63.5212,152.672 60.5212,152.005 57.5,151.5C 57.8333,150.5 58.5,149.833 59.5,149.5 Z"/></g>
<g><path style="opacity:1" fill="#706b80" d="M 98.5,144.5 C 97.3065,145.272 96.3065,146.272 95.5,147.5C 90.9172,147.895 86.5838,149.062 82.5,151C 79.5184,151.498 76.5184,151.665 73.5,151.5C 73.5,150.833 73.1667,150.5 72.5,150.5C 81.2589,149.367 89.9255,147.367 98.5,144.5 Z"/></g>
<g><path style="opacity:1" fill="#b5b2bf" d="M 246.5,150.5 C 247.833,151.167 249.167,151.833 250.5,152.5C 243.514,153.573 236.514,153.407 229.5,152C 235.18,151.555 240.846,151.055 246.5,150.5 Z"/></g>
<g><path style="opacity:1" fill="#3e3659" d="M 212.5,132.5 C 212.414,133.496 212.748,134.329 213.5,135C 218.068,137.452 222.735,139.618 227.5,141.5C 232.9,143.909 238.566,145.409 244.5,146C 246.319,147.415 246.985,148.915 246.5,150.5C 240.846,151.055 235.18,151.555 229.5,152C 236.514,153.407 243.514,153.573 250.5,152.5C 251.837,153.315 252.837,154.482 253.5,156C 257.56,156.978 261.56,158.145 265.5,159.5C 266.833,161.167 266.833,162.833 265.5,164.5C 254.864,161.026 254.031,162.359 263,168.5C 266.349,175.303 265.349,175.97 260,170.5C 259.86,172.256 260.36,173.922 261.5,175.5C 261,175.833 260.5,176.167 260,176.5C 258.127,175.132 256.46,173.466 255,171.5C 255.615,173.756 255.948,176.089 256,178.5C 252.143,174.611 248.643,170.444 245.5,166C 245.167,165.833 244.833,165.667 244.5,165.5C 243.381,168.596 243.714,171.596 245.5,174.5C 245.167,174.833 244.833,175.167 244.5,175.5C 241.962,172.281 239.296,169.114 236.5,166C 222.437,165.137 211.103,159.304 202.5,148.5C 205.708,148.474 207.708,149.474 208.5,151.5C 213.861,150.972 219.527,150.972 225.5,151.5C 225.762,150.022 225.429,148.689 224.5,147.5C 221.873,146.942 219.54,145.942 217.5,144.5C 218.239,144.631 218.906,144.464 219.5,144C 215.654,142.305 212.654,139.805 210.5,136.5C 210.66,134.847 211.326,133.514 212.5,132.5 Z"/></g>
<g><path style="opacity:1" fill="#3f365a" d="M 95.5,147.5 C 97.5486,148.882 99.2153,150.548 100.5,152.5C 98.2748,155.889 95.2748,158.389 91.5,160C 84.2308,162.317 76.8975,164.317 69.5,166C 67.5209,169.472 65.1875,172.638 62.5,175.5C 62.1667,175 61.8333,174.5 61.5,174C 62.6868,171.276 63.3535,168.443 63.5,165.5C 61.6096,165.297 60.1096,165.963 59,167.5C 58,169.5 57,171.5 56,173.5C 50.9291,179.079 49.5958,178.412 52,171.5C 50.3116,173.188 48.6449,174.855 47,176.5C 46.5,176.167 46,175.833 45.5,175.5C 46.6405,173.922 47.1405,172.256 47,170.5C 45.6487,172.019 44.1487,173.352 42.5,174.5C 42.1667,174 41.8333,173.5 41.5,173C 43.4333,168.732 46.4333,165.399 50.5,163C 46.5955,162.249 42.9288,162.749 39.5,164.5C 39.472,162.418 40.1387,160.584 41.5,159C 45.082,157.749 48.7487,156.749 52.5,156C 54.0375,154.293 55.7041,152.793 57.5,151.5C 60.5212,152.005 63.5212,152.672 66.5,153.5C 68.7617,152.533 71.095,151.866 73.5,151.5C 76.5184,151.665 79.5184,151.498 82.5,151C 86.5838,149.062 90.9172,147.895 95.5,147.5 Z"/></g>
<g><path style="opacity:0.463" fill="#5f6160" d="M 271.5,151.5 C 273.833,151.833 275.167,153.167 275.5,155.5C 275.167,153.167 273.833,151.833 271.5,151.5 Z"/></g>
<g><path style="opacity:1" fill="#c0bcc7" d="M 162.5,156.5 C 160.38,161.356 158.547,166.356 157,171.5C 157.005,165.635 158.172,159.969 160.5,154.5C 163.561,145.712 167.728,137.378 173,129.5C 168.994,138.199 165.494,147.199 162.5,156.5 Z"/></g>
<g><path style="opacity:1" fill="#f4f3f5" d="M 118.5,172.5 C 116.43,192.348 117.43,212.014 121.5,231.5C 125.321,247.648 131.654,262.648 140.5,276.5C 145.739,286.308 150.406,296.308 154.5,306.5C 154.5,306.833 154.5,307.167 154.5,307.5C 146.653,303.826 140.487,298.16 136,290.5C 114.125,255.634 104.625,217.634 107.5,176.5C 108.404,175.791 108.737,174.791 108.5,173.5C 109.319,170.695 109.819,167.695 110,164.5C 110.414,164.043 110.914,163.709 111.5,163.5C 113.702,164.78 115.868,164.78 118,163.5C 118.498,166.482 118.665,169.482 118.5,172.5 Z"/></g>
<g><path style="opacity:0.627" fill="#a09fa1" d="M 111.5,154.5 C 111.34,156.199 111.506,157.866 112,159.5C 112.417,160.756 113.25,161.423 114.5,161.5C 115.919,162.451 117.585,162.784 119.5,162.5C 119.5,164.167 119.5,165.833 119.5,167.5C 119.784,169.415 119.451,171.081 118.5,172.5C 118.665,169.482 118.498,166.482 118,163.5C 115.868,164.78 113.702,164.78 111.5,163.5C 110.914,163.709 110.414,164.043 110,164.5C 109.819,167.695 109.319,170.695 108.5,173.5C 108.665,170.482 108.498,167.482 108,164.5C 106.989,163.663 105.822,163.33 104.5,163.5C 105.406,162.035 106.739,161.035 108.5,160.5C 109.208,158.255 110.208,156.255 111.5,154.5 Z"/></g>
<g><path style="opacity:0.082" fill="#161716" d="M 104.5,163.5 C 105.822,163.33 106.989,163.663 108,164.5C 108.498,167.482 108.665,170.482 108.5,173.5C 108.737,174.791 108.404,175.791 107.5,176.5C 107.854,172.363 107.354,168.363 106,164.5C 101.853,166.633 97.6864,168.799 93.5,171C 86.9271,172.719 80.5938,174.886 74.5,177.5C 74.4142,176.504 74.7476,175.671 75.5,175C 85.9905,173.008 95.6572,169.175 104.5,163.5 Z"/></g>
<g><path style="opacity:0.149" fill="#131413" d="M 276.5,178.5 C 276.489,180.017 275.823,181.184 274.5,182C 261.474,187.966 248.474,187.966 235.5,182C 230.25,176.016 223.583,172.683 215.5,172C 211.921,170.294 208.421,168.461 205,166.5C 203.008,167.665 201.175,168.998 199.5,170.5C 200.423,166.736 202.756,165.236 206.5,166C 214.328,170.415 222.662,173.415 231.5,175C 234.954,180.567 239.954,183.9 246.5,185C 257.568,187.2 267.568,185.033 276.5,178.5 Z"/></g>
<g><path style="opacity:1" fill="#3d3357" d="M 187.5,143.5 C 187.5,152.833 187.5,162.167 187.5,171.5C 188.313,180.156 188.48,188.823 188,197.5C 185.263,196.39 182.429,196.223 179.5,197C 180.696,197.654 180.696,198.154 179.5,198.5C 178.859,197.007 177.859,196.007 176.5,195.5C 178.569,186.616 179.402,177.616 179,168.5C 177.837,175.14 176.837,181.807 176,188.5C 175.302,191.004 174.469,193.337 173.5,195.5C 171.864,194.754 170.197,195.088 168.5,196.5C 168.687,195.183 168.02,193.85 166.5,192.5C 165.199,193.478 164.032,193.145 163,191.5C 160.747,195.009 158.08,195.675 155,193.5C 149.944,195.825 145.11,195.325 140.5,192C 139,191.5 137.5,191 136,190.5C 135.235,190.57 134.735,190.903 134.5,191.5C 127.762,180.576 124.095,168.576 123.5,155.5C 123.573,153.973 122.906,152.973 121.5,152.5C 122.09,151.234 122.59,149.901 123,148.5C 123.216,150.384 123.883,152.051 125,153.5C 125.333,153.167 125.667,152.833 126,152.5C 126.465,153.931 127.299,155.097 128.5,156C 130.676,156.163 132.509,156.996 134,158.5C 136.333,157.833 138.667,157.167 141,156.5C 141.667,157.167 142.333,157.833 143,158.5C 143.242,155.928 144.575,154.261 147,153.5C 149.414,155.084 152.08,156.084 155,156.5C 156.89,156.215 158.223,155.215 159,153.5C 159.383,154.056 159.883,154.389 160.5,154.5C 158.172,159.969 157.005,165.635 157,171.5C 158.547,166.356 160.38,161.356 162.5,156.5C 164.484,157.156 166.484,157.822 168.5,158.5C 174.172,156.66 179.839,155.993 185.5,156.5C 185.34,158.199 185.506,159.866 186,161.5C 186.172,155.319 186.672,149.319 187.5,143.5 Z"/></g>
<g><path style="opacity:1" fill="#a7a1b1" d="M 144.5,157.5 C 148.897,162.298 151.064,167.964 151,174.5C 148.912,168.725 146.745,163.058 144.5,157.5 Z"/></g>
<g><path style="opacity:0.675" fill="#555756" d="M 277.5,159.5 C 278.139,160.097 278.472,160.93 278.5,162C 277.948,167.66 277.281,173.16 276.5,178.5C 276.347,172.131 276.68,165.797 277.5,159.5 Z"/></g>
<g><path style="opacity:1" fill="#b7b0bf" d="M 123.5,155.5 C 124.095,168.576 127.762,180.576 134.5,191.5C 136.833,195.5 139.167,199.5 141.5,203.5C 128.158,190.128 122.158,174.128 123.5,155.5 Z"/></g>
<g><path style="opacity:0.149" fill="#0d0e0e" d="M 70.5,181.5 C 69.713,183.104 68.3797,183.771 66.5,183.5C 67.5137,182.326 68.847,181.66 70.5,181.5 Z"/></g>
<g><path style="opacity:0.237" fill="#131414" d="M 33.5,152.5 C 32.4434,154.941 31.11,157.275 29.5,159.5C 25.6074,161.062 25.7741,162.395 30,163.5C 30.5459,166.855 30.3792,170.188 29.5,173.5C 29.8047,176.276 30.8047,178.776 32.5,181C 43.4887,186.011 54.822,186.844 66.5,183.5C 64.8516,184.927 62.8516,185.76 60.5,186C 50.3851,187.571 40.7184,186.238 31.5,182C 28.5013,177.175 27.6679,172.008 29,166.5C 27.6052,164.888 26.1052,163.388 24.5,162C 27.6289,159.036 30.6289,155.869 33.5,152.5 Z"/></g>
<g><path style="opacity:1" fill="#b9b1c5" d="M 176.5,195.5 C 173.87,204.297 169.704,212.297 164,219.5C 163.601,219.272 163.435,218.938 163.5,218.5C 168.635,211.672 171.969,204.006 173.5,195.5C 174.469,193.337 175.302,191.004 176,188.5C 176.837,181.807 177.837,175.14 179,168.5C 179.402,177.616 178.569,186.616 176.5,195.5 Z"/></g>
<g><path style="opacity:1" fill="#483963" d="M 121.5,152.5 C 122.906,152.973 123.573,153.973 123.5,155.5C 122.158,174.128 128.158,190.128 141.5,203.5C 142.713,206.225 144.546,208.559 147,210.5C 147.688,211.332 147.521,211.998 146.5,212.5C 145.575,213.641 144.741,213.641 144,212.5C 143.333,213.167 142.667,213.833 142,214.5C 137.974,213.774 133.974,212.774 130,211.5C 129.583,212.756 128.75,213.423 127.5,213.5C 127.328,209.466 126.828,205.466 126,201.5C 125.51,208.896 126.01,216.229 127.5,223.5C 127.649,224.552 127.483,225.552 127,226.5C 124.708,225.399 123.208,226.232 122.5,229C 124.158,229.725 124.658,230.892 124,232.5C 123.329,231.748 122.496,231.414 121.5,231.5C 117.43,212.014 116.43,192.348 118.5,172.5C 119.451,171.081 119.784,169.415 119.5,167.5C 120.222,167.082 120.722,166.416 121,165.5C 121.499,161.179 121.666,156.846 121.5,152.5 Z"/></g>
<g><path style="opacity:1" fill="#4d3d6a" d="M 173.5,195.5 C 171.969,204.006 168.635,211.672 163.5,218.5C 162.121,221.344 160.121,223.844 157.5,226C 156.258,226.311 155.258,225.811 154.5,224.5C 153.614,225.325 153.281,226.325 153.5,227.5C 151.801,227.62 150.135,227.954 148.5,228.5C 145.101,227.513 141.934,226.847 139,226.5C 136.595,228.372 134.095,229.039 131.5,228.5C 130.323,223.457 128.989,218.457 127.5,213.5C 128.75,213.423 129.583,212.756 130,211.5C 133.974,212.774 137.974,213.774 142,214.5C 142.667,213.833 143.333,213.167 144,212.5C 144.741,213.641 145.575,213.641 146.5,212.5C 147.521,211.998 147.688,211.332 147,210.5C 144.546,208.559 142.713,206.225 141.5,203.5C 139.167,199.5 136.833,195.5 134.5,191.5C 134.735,190.903 135.235,190.57 136,190.5C 137.5,191 139,191.5 140.5,192C 145.11,195.325 149.944,195.825 155,193.5C 158.08,195.675 160.747,195.009 163,191.5C 164.032,193.145 165.199,193.478 166.5,192.5C 168.02,193.85 168.687,195.183 168.5,196.5C 170.197,195.088 171.864,194.754 173.5,195.5 Z"/></g>
<g><path style="opacity:1" fill="#c0b9c9" d="M 146.5,215.5 C 147.675,215.281 148.675,215.614 149.5,216.5C 147.948,217.798 146.948,217.465 146.5,215.5 Z"/></g>
<g><path style="opacity:1" fill="#ae9abc" d="M 173.5,245.5 C 170.882,251.395 167.716,257.062 164,262.5C 163.833,262 163.667,261.5 163.5,261C 168.822,250.529 173.155,239.696 176.5,228.5C 179.72,221.308 181.887,213.642 183,205.5C 183.667,208.167 183.667,210.833 183,213.5C 180.741,224.443 177.574,235.109 173.5,245.5 Z"/></g>
<g><path style="opacity:1" fill="#564272" d="M 187.5,171.5 C 192.924,202.445 188.924,232.112 175.5,260.5C 175.617,258.516 174.95,256.85 173.5,255.5C 178.809,252.54 181.142,248.207 180.5,242.5C 179.281,243.263 178.281,244.263 177.5,245.5C 176.135,244.193 174.802,244.193 173.5,245.5C 177.574,235.109 180.741,224.443 183,213.5C 183.667,210.833 183.667,208.167 183,205.5C 181.887,213.642 179.72,221.308 176.5,228.5C 174.183,232.315 171.016,235.315 167,237.5C 161.778,237.8 156.445,237.467 151,236.5C 147.409,236.639 144.409,237.972 142,240.5C 140.461,237.479 137.961,236.146 134.5,236.5C 133.501,233.838 132.501,231.172 131.5,228.5C 134.095,229.039 136.595,228.372 139,226.5C 141.934,226.847 145.101,227.513 148.5,228.5C 150.135,227.954 151.801,227.62 153.5,227.5C 153.281,226.325 153.614,225.325 154.5,224.5C 155.258,225.811 156.258,226.311 157.5,226C 160.121,223.844 162.121,221.344 163.5,218.5C 163.435,218.938 163.601,219.272 164,219.5C 169.704,212.297 173.87,204.297 176.5,195.5C 177.859,196.007 178.859,197.007 179.5,198.5C 180.696,198.154 180.696,197.654 179.5,197C 182.429,196.223 185.263,196.39 188,197.5C 188.48,188.823 188.313,180.156 187.5,171.5 Z"/></g>
<g><path style="opacity:0.525" fill="#494948" d="M 196.5,232.5 C 195.87,236.048 194.87,239.381 193.5,242.5C 193.32,238.714 194.32,235.381 196.5,232.5 Z"/></g>
<g><path style="opacity:1" fill="#b4a2c4" d="M 127.5,213.5 C 128.989,218.457 130.323,223.457 131.5,228.5C 132.501,231.172 133.501,233.838 134.5,236.5C 136.293,241.419 138.626,246.086 141.5,250.5C 141.154,251.696 140.654,251.696 140,250.5C 134.718,241.94 130.551,232.94 127.5,223.5C 126.01,216.229 125.51,208.896 126,201.5C 126.828,205.466 127.328,209.466 127.5,213.5 Z"/></g>
<g><path style="opacity:0.069" fill="#151515" d="M 107.5,176.5 C 104.625,217.634 114.125,255.634 136,290.5C 140.487,298.16 146.653,303.826 154.5,307.5C 153.399,308.598 152.066,308.765 150.5,308C 146.033,304.535 141.867,300.702 138,296.5C 121.519,271.53 111.186,244.196 107,214.5C 106.173,201.66 106.34,188.993 107.5,176.5 Z"/></g>
<g><path style="opacity:0.259" fill="#464747" d="M 193.5,242.5 C 191.185,252.127 187.518,261.127 182.5,269.5C 185.988,260.356 189.655,251.356 193.5,242.5 Z"/></g>
<g><path style="opacity:1" fill="#6b4b85" d="M 127.5,223.5 C 130.551,232.94 134.718,241.94 140,250.5C 140.654,251.696 141.154,251.696 141.5,250.5C 138.626,246.086 136.293,241.419 134.5,236.5C 137.961,236.146 140.461,237.479 142,240.5C 144.409,237.972 147.409,236.639 151,236.5C 156.445,237.467 161.778,237.8 167,237.5C 171.016,235.315 174.183,232.315 176.5,228.5C 173.155,239.696 168.822,250.529 163.5,261C 163.667,261.5 163.833,262 164,262.5C 167.716,257.062 170.882,251.395 173.5,245.5C 174.802,244.193 176.135,244.193 177.5,245.5C 178.281,244.263 179.281,243.263 180.5,242.5C 181.142,248.207 178.809,252.54 173.5,255.5C 174.95,256.85 175.617,258.516 175.5,260.5C 173.42,264.996 171.086,269.329 168.5,273.5C 166.61,273.703 165.11,273.037 164,271.5C 163.044,272.894 161.711,273.561 160,273.5C 155.856,272.984 151.689,272.651 147.5,272.5C 146.18,274.27 144.68,274.603 143,273.5C 141.583,274.078 140.75,275.078 140.5,276.5C 131.654,262.648 125.321,247.648 121.5,231.5C 122.496,231.414 123.329,231.748 124,232.5C 124.658,230.892 124.158,229.725 122.5,229C 123.208,226.232 124.708,225.399 127,226.5C 127.483,225.552 127.649,224.552 127.5,223.5 Z"/></g>
<g><path style="opacity:0.125" fill="#292929" d="M 181.5,271.5 C 181.539,274.089 180.539,276.089 178.5,277.5C 178.992,275.181 179.992,273.181 181.5,271.5 Z"/></g>
<g><path style="opacity:1" fill="#815698" d="M 168.5,273.5 C 165.28,280.271 161.78,286.937 158,293.5C 156.829,297.518 155.663,301.518 154.5,305.5C 154.5,305.833 154.5,306.167 154.5,306.5C 150.406,296.308 145.739,286.308 140.5,276.5C 140.75,275.078 141.583,274.078 143,273.5C 144.68,274.603 146.18,274.27 147.5,272.5C 151.689,272.651 155.856,272.984 160,273.5C 161.711,273.561 163.044,272.894 164,271.5C 165.11,273.037 166.61,273.703 168.5,273.5 Z"/></g>
<g><path style="opacity:0.051" fill="#232323" d="M 178.5,277.5 C 174.298,290.587 166.298,300.587 154.5,307.5C 154.5,307.167 154.5,306.833 154.5,306.5C 154.5,306.167 154.5,305.833 154.5,305.5C 159.687,302.827 164.187,299.16 168,294.5C 171.525,288.769 175.025,283.103 178.5,277.5 Z"/></g>
</svg>
