<svg viewBox="0 0 101 100" fill="none" xmlns="http://www.w3.org/2000/svg">
<path d="M40.3113 53.0015C40.5282 52.7352 40.8932 52.3209 41.1102 52.094C41.337 51.8573 41.5442 51.6699 41.5738 51.6699C41.5935 51.6699 41.4751 51.8771 41.3074 52.1434C41.1299 52.3998 40.8439 52.9226 40.6663 53.2974C40.4888 53.682 40.2521 54.3429 40.1436 54.7769C40.0055 55.3391 39.9463 55.8815 39.9463 56.6509C39.9463 57.2427 40.0154 58.0219 40.0844 58.377C40.1633 58.732 40.3606 59.3731 40.5282 59.8071C40.6959 60.2411 41.0313 60.8921 41.2779 61.2669C41.5244 61.6318 41.7217 61.9475 41.7217 61.9771C41.7217 62.0066 41.6625 61.9968 41.6033 61.9573C41.5179 61.9047 41.5014 61.9212 41.554 62.0066C41.5935 62.0658 41.6527 62.1053 41.6921 62.0757C41.7414 62.056 42.0571 62.3223 42.4121 62.6773C42.7672 63.0324 43.2998 63.5157 43.5957 63.7426C43.8916 63.9694 44.4045 64.3146 44.73 64.5021C45.0555 64.6796 45.7163 64.9952 47.0972 65.5476L48.557 69.9269C49.3657 72.3335 50.1647 74.819 50.3521 75.4404C50.5296 76.0618 50.7071 76.5057 50.7367 76.4268C50.7663 76.3479 50.9241 75.8152 51.0918 75.2432C51.2595 74.6711 51.7527 73.1226 52.1965 71.791C52.6305 70.4595 53.2815 68.5361 53.6267 67.5005C53.9818 66.4747 54.3171 65.5771 54.3763 65.518C54.4453 65.4588 54.9188 65.2418 55.4317 65.0445C55.9445 64.8374 56.6547 64.5021 57.0098 64.2949C57.3649 64.0878 57.9468 63.6637 58.3117 63.3678C58.6865 63.062 59.2487 62.4899 59.5742 62.1053C59.8997 61.7107 60.3633 60.9907 60.6099 60.4976C60.8466 60.0143 61.1425 59.2745 61.251 58.8701C61.3694 58.4657 61.4877 57.6668 61.5173 57.0947C61.5568 56.3155 61.537 55.852 61.4088 55.2207C61.3102 54.7571 61.1129 54.0766 60.9551 53.6919C60.7973 53.3171 60.6987 52.962 60.7381 52.9028C60.7776 52.8535 60.7578 52.8338 60.7085 52.8732C60.6493 52.9028 60.531 52.8042 60.4323 52.6464C60.3436 52.4886 60.314 52.3604 60.3633 52.3604C60.4126 52.3604 60.3929 52.242 60.3041 52.094C60.1759 51.8672 60.2055 51.8771 60.4619 52.1631C60.6296 52.3505 60.9847 52.8239 61.2609 53.1987C61.5272 53.5834 61.8527 54.1752 61.971 54.5303C62.1584 55.0925 62.188 55.3687 62.188 56.8481C62.1781 58.4164 62.1584 58.5742 61.902 59.3633C61.7442 59.8269 61.4877 60.468 61.3299 60.7935C61.1622 61.1189 60.7973 61.7107 60.5211 62.1151C60.2449 62.5195 59.663 63.1804 59.229 63.5946C58.795 64.0089 58.1046 64.5514 57.7002 64.8078C57.2958 65.0643 56.4673 65.4884 54.7905 66.2183L53.459 70.2129C52.7291 72.4124 51.8907 74.9867 51.6146 75.9336C51.3285 76.8805 51.0228 77.9457 50.934 78.3008C50.8452 78.6559 50.7367 78.9912 50.6973 79.0405C50.648 79.0997 50.5888 78.9715 50.5592 78.7446C50.5296 78.5276 50.2534 77.5314 49.9575 76.5254C49.6518 75.5193 48.8726 73.1226 48.2315 71.1992C47.5904 69.2759 46.9295 67.3427 46.7618 66.9087C46.4758 66.1492 46.4462 66.1196 46.0418 65.9815C45.8051 65.9125 45.1936 65.6265 44.6807 65.3602C44.1678 65.0938 43.4576 64.6599 43.1026 64.3936C42.7475 64.1371 42.1557 63.5946 41.7809 63.2001C41.3962 62.7957 40.8833 62.1645 40.6367 61.7798C40.3902 61.405 40.0449 60.7343 39.8773 60.3003C39.6997 59.8663 39.4926 59.2449 39.4038 58.9194C39.3151 58.5939 39.2164 57.795 39.1868 57.144C39.1375 56.2169 39.1671 55.7928 39.3052 55.1714C39.394 54.7374 39.5814 54.1851 39.6997 53.9385C39.8181 53.6919 40.0943 53.2776 40.3113 53.0015Z" fill="url(#paint0_linear_103_133)"/>
<path d="M44.6609 54.2344C44.7596 53.9878 45.016 53.2875 45.2231 52.6858C45.4303 52.0743 45.6275 51.5713 45.6571 51.5713C45.6867 51.5812 46.0911 51.9461 46.5547 52.3998C47.0183 52.8437 48.0736 53.8596 48.9021 54.6388C49.7405 55.418 50.4901 56.0985 50.5789 56.138C50.6973 56.207 50.8255 56.1479 51.0425 55.9407C51.2003 55.7829 51.9203 55.1221 52.6206 54.481C53.3209 53.8398 54.2579 52.9521 54.6919 52.528C55.2837 51.9461 55.5204 51.7686 55.6289 51.8277C55.7374 51.8968 55.7571 51.8771 55.6979 51.7981C55.6585 51.7291 55.6782 51.6502 55.7275 51.6206C55.7769 51.591 55.8854 51.7784 55.9643 52.0447C56.0432 52.3012 56.2799 52.9817 56.9111 54.6289L56.5659 55.1714C56.3785 55.4673 56.2108 55.7139 56.1911 55.7139C56.1812 55.7237 56.1023 55.6448 56.0234 55.5561C55.8952 55.4081 55.8952 55.3884 56.0234 55.4771C56.1319 55.5462 56.1517 55.5265 56.0925 55.3982C56.053 55.2996 56.0826 55.0925 56.1714 54.9248C56.2503 54.767 56.3193 54.6092 56.3193 54.5796C56.3193 54.55 56.0728 54.7275 55.7769 54.9741C55.333 55.3391 55.1653 55.418 54.8398 55.418C54.6229 55.418 54.1001 55.3489 53.6858 55.2602C53.2617 55.1813 52.8475 55.1221 52.7686 55.1517C52.6896 55.1714 52.5713 55.1418 52.5022 55.0826C52.4135 55.0037 52.4135 54.9445 52.5022 54.8262C52.6009 54.7078 52.591 54.7078 52.4431 54.8064C52.3543 54.8755 52.2951 54.9544 52.3247 55.0037C52.3444 55.0432 52.2261 55.1813 52.0485 55.3193C51.871 55.4476 51.7132 55.5561 51.6836 55.5462C51.654 55.5462 51.437 55.7139 51.1904 55.921C50.9438 56.1281 50.717 56.2958 50.6775 56.3057C50.6282 56.3057 50.3619 56.1084 50.0857 55.8618C49.7997 55.6152 49.5433 55.4377 49.5137 55.4673C49.4841 55.4969 49.3854 55.4377 49.2868 55.3489C49.1882 55.2503 49.1093 55.1911 49.1093 55.2207C49.1191 55.2503 48.9317 55.2404 48.695 55.2108C48.4682 55.1714 48.1427 55.1812 47.9849 55.2306C47.8271 55.27 47.3536 55.3193 46.9492 55.3391C46.2884 55.3687 46.17 55.3489 45.8643 55.1221C45.667 54.984 45.4105 54.8163 45.2922 54.7571C45.1146 54.6585 45.0752 54.6585 45.0752 54.7571C45.0752 54.8163 45.1442 54.9643 45.2231 55.0728C45.3119 55.1813 45.3711 55.2996 45.3711 55.3489C45.3711 55.3884 45.2725 55.3687 45.1541 55.2996C44.9568 55.201 44.9371 55.201 45.0062 55.3489C45.0456 55.4377 45.0555 55.5166 45.0259 55.5166C44.9963 55.5166 44.8681 55.3292 44.4834 54.6782L44.6609 54.2344Z" fill="url(#paint1_linear_103_133)"/>
<path d="M57.9369 51.6699C57.0689 50.7625 56.9506 50.6047 56.99 50.368C57.0394 50.1017 57.0492 50.1017 57.8284 50.8118C58.2525 51.1965 58.7457 51.7488 58.9232 52.0151C59.1008 52.2913 59.3474 52.7549 59.4657 53.0508C59.5841 53.3467 59.7222 53.9089 59.7518 54.3034C59.8109 54.9347 59.8011 55.0333 59.6235 55.201C59.4263 55.3785 59.4263 55.3785 59.4559 54.5895C59.4855 53.8793 59.4559 53.7314 59.2093 53.2481C59.0515 52.9127 58.5484 52.3012 57.9369 51.6699Z" fill="url(#paint2_linear_103_133)"/>
<path d="M42.1853 52.459C42.3529 52.1236 42.7869 51.5713 43.3294 51.0091C43.8226 50.5061 44.227 50.0918 44.2467 50.0918C44.2664 50.0918 44.2467 50.151 44.2072 50.22C44.1579 50.3088 44.1776 50.3088 44.2861 50.2397C44.365 50.1904 44.4834 50.1411 44.5327 50.1313C44.5919 50.1214 44.5524 50.2496 44.4439 50.4173C44.3354 50.5948 43.9212 51.088 43.5168 51.522C43.1124 51.956 42.6488 52.5083 42.4812 52.7549C42.3135 53.0015 42.1162 53.396 42.0373 53.6426C41.9387 53.9385 41.9091 54.2936 41.9485 54.7275C41.9781 55.0826 41.9781 55.3095 41.9584 55.2503C41.9387 55.1813 41.8696 55.1517 41.8006 55.201C41.7217 55.2503 41.6921 55.1911 41.7315 55.0136C41.7513 54.8656 41.7414 54.767 41.6921 54.7867C41.6526 54.8064 41.623 54.6782 41.623 54.5105C41.623 54.333 41.6921 53.9188 41.771 53.5933C41.8598 53.2678 42.0472 52.7549 42.1853 52.459Z" fill="url(#paint3_linear_103_133)"/>
<path d="M65.5415 50.6343C66.4686 50.3976 67.3267 50.1609 67.4549 50.1116C67.593 50.0622 67.7114 50.0228 67.7311 50.0326C67.741 50.0326 67.4549 50.5061 66.4291 52.0842L65.5415 52.025C65.0483 51.9954 63.845 51.9165 62.8685 51.8475C61.8822 51.7883 61.1128 51.6995 61.1424 51.6601C61.172 51.6206 61.8033 51.4727 62.5331 51.3247C63.263 51.1867 64.6143 50.871 65.5415 50.6343Z" fill="url(#paint4_linear_103_133)"/>
<path d="M34.2749 51.0584C33.9494 50.5554 33.6634 50.1115 33.6338 50.0721C33.6042 50.0326 33.8113 50.0622 34.0776 50.151C34.3538 50.2299 35.0541 50.4272 35.6558 50.585C36.2574 50.7526 37.4903 51.0387 38.4175 51.2359C39.3446 51.4332 40.1238 51.6206 40.1633 51.6601C40.2027 51.6897 39.7392 51.7488 39.1276 51.7883C38.5161 51.8277 37.3128 51.8869 34.8667 51.9856L34.2749 51.0584Z" fill="url(#paint5_linear_103_133)"/>
<path d="M45.8249 51.2951C45.8051 51.2556 45.9432 50.7723 46.1405 50.2101L46.5054 49.1942L50.6973 53.396L52.7883 51.305C53.9325 50.151 54.8794 49.2139 54.8794 49.2337C54.8892 49.2435 55.047 49.7071 55.5797 51.2556L55.047 51.7291C54.7511 51.9954 53.7056 52.8732 52.7292 53.6721C51.7428 54.4809 50.8847 55.1615 50.8157 55.1812C50.7565 55.201 49.6124 54.3527 48.2808 53.2973C46.9493 52.242 45.8446 51.3444 45.8249 51.2951Z" fill="url(#paint6_linear_103_133)"/>
<path d="M56.9111 47.8232C56.9209 47.6851 57.0097 47.4188 57.1083 47.2216C57.1971 47.0243 57.3451 46.8763 57.4338 46.8763C57.5127 46.8862 57.5621 46.9158 57.5423 46.9651C57.5226 47.0046 57.4437 47.0046 57.3845 46.9651C57.2958 46.9059 57.2859 46.9355 57.3352 47.0637C57.3747 47.1525 57.3549 47.3301 57.2958 47.4583C57.2267 47.5766 57.1182 47.9416 57.0492 48.2671C56.9308 48.8391 56.9308 48.849 56.9111 48.4643C56.9012 48.2473 56.9012 47.9613 56.9111 47.8232Z" fill="url(#paint7_linear_103_133)"/>
<path d="M52.3642 48.3657C52.6798 47.4386 53.0349 46.324 53.1729 45.8802C53.3012 45.4363 53.4294 45.0911 53.4393 45.101C53.459 45.1108 53.4097 45.8111 53.3209 46.6495C53.2321 47.4879 53.1729 48.1783 53.1828 48.198C53.2025 48.2079 53.5477 48.0402 53.9521 47.8232C54.3565 47.6062 54.7116 47.4484 54.7412 47.478C54.7708 47.5076 54.7609 47.5964 54.7116 47.6753C54.6722 47.7542 54.0113 48.3263 53.2321 48.9477C52.4628 49.569 51.8217 50.0622 51.8118 50.0523C51.8019 50.0523 52.0485 49.2929 52.3642 48.3657Z" fill="url(#paint8_linear_103_133)"/>
<path d="M48.1821 46.8369C48.1032 46.107 48.0046 45.3673 47.9849 45.2095C47.9454 44.9432 47.9553 44.9432 48.0539 45.2588C48.1131 45.4462 48.5175 46.61 49.711 50.0918L49.346 49.7959C49.1389 49.6381 48.5076 49.135 47.9356 48.6813C47.3635 48.2276 46.8309 47.7838 46.752 47.6851C46.6731 47.5964 46.6237 47.4977 46.6533 47.478C46.6829 47.4484 47.0577 47.626 47.4917 47.8725C47.9257 48.1191 48.2906 48.2868 48.3104 48.2474C48.3301 48.198 48.2709 47.5668 48.1821 46.8369Z" fill="url(#paint9_linear_103_133)"/>
<path d="M69.3093 45.7323C69.8715 45.3673 70.3548 45.0122 70.3943 44.9531C70.4239 44.8939 70.4732 44.8643 70.483 44.884C70.5028 44.9037 70.1674 45.604 69.7433 46.4424C69.3192 47.2808 68.9542 48.0304 68.9345 48.0994C68.9148 48.1784 68.5005 48.3164 67.958 48.4249C67.4452 48.5334 65.4922 48.9082 63.6182 49.2534C61.7442 49.6085 60.2055 49.8847 60.1956 49.865C60.1858 49.8551 60.9847 49.5395 61.971 49.1647C62.9574 48.7899 64.2988 48.2671 64.9497 48.0008C65.6007 47.7246 66.6166 47.2611 67.2183 46.9553C67.8101 46.6495 68.757 46.0972 69.3093 45.7323Z" fill="url(#paint10_linear_103_133)"/>
<path d="M32.6278 48.2671L31.7302 46.541C30.9609 45.0517 30.8721 44.8445 31.1285 45.0418C31.2864 45.17 31.7697 45.5054 32.2036 45.8013C32.6376 46.0873 33.6634 46.6594 34.4722 47.0638C35.2908 47.4682 36.6816 48.0896 37.5791 48.4348C38.4767 48.7899 39.6603 49.2534 40.2126 49.4606C40.7748 49.6776 41.2187 49.8551 41.199 49.865C41.1891 49.8847 40.8439 49.8255 40.4395 49.7367C40.0351 49.648 38.1117 49.283 32.6278 48.2671Z" fill="url(#paint11_linear_103_133)"/>
<path d="M57.0196 43.0099C57.0787 42.9409 57.0689 42.8324 56.9998 42.7239V42.714C56.9308 42.6253 57.1576 42.8324 57.493 43.1875C57.8185 43.5426 58.1637 43.9667 58.2525 44.1245C58.3412 44.302 58.3807 44.519 58.2919 44.9136L58.0848 44.7163C57.9368 44.5683 57.8875 44.5486 57.8974 44.667C57.8974 44.7459 57.779 44.5683 57.6311 44.2724C57.4831 43.9765 57.3549 43.6609 57.345 43.582C57.3253 43.5031 57.3056 43.365 57.2859 43.2664C57.2661 43.1776 57.2267 43.0691 57.1774 43.0198C57.1379 42.9804 57.128 43.0494 57.1576 43.1875C57.1872 43.3256 57.2365 43.4735 57.2661 43.5327C57.2957 43.5919 57.2365 43.5228 57.128 43.3847C56.99 43.2204 56.9538 43.0954 57.0196 43.0099Z" fill="url(#paint12_linear_103_133)"/>
<path d="M43.1025 44.1245C43.2209 43.9075 43.6253 43.3946 44.0198 42.9705C44.4144 42.5562 44.7398 42.211 44.7497 42.211C44.7596 42.2012 44.7201 42.2899 44.6708 42.3984C44.6215 42.5069 44.582 42.6154 44.582 42.645C44.582 42.6746 44.6215 42.6746 44.6807 42.645C44.7398 42.6154 44.73 42.6943 44.6609 42.8127C44.6018 42.9409 44.3354 43.3749 44.0691 43.7793C43.8028 44.1837 43.5661 44.6768 43.5365 44.8642C43.4872 45.1207 43.4576 45.17 43.3984 45.0615C43.3491 44.9826 43.3294 44.8938 43.3393 44.8642C43.359 44.8346 43.2702 44.8248 43.142 44.8346C42.9743 44.8544 42.9053 44.8149 42.9053 44.6867C42.9053 44.5979 42.994 44.3415 43.1025 44.1245Z" fill="url(#paint13_linear_103_133)"/>
<path d="M46.4166 39.9326C46.3278 39.6367 46.2588 39.3112 46.2588 39.2225C46.2588 39.0844 46.3476 39.114 46.7026 39.3901C46.9492 39.5775 47.3142 39.7748 47.5213 39.834C47.7186 39.8833 48.0243 39.9326 48.1821 39.9326C48.3399 39.9326 48.626 39.9622 48.7937 40.0017C49.0994 40.0806 49.1191 40.12 49.2671 40.771C49.3657 41.2346 49.4644 41.4614 49.563 41.4614C49.6419 41.4614 49.7405 41.2839 49.8096 41.0176C49.8786 40.771 49.997 40.4356 50.2238 39.9819L50.431 40.268C50.5592 40.4356 50.6973 40.5244 50.7762 40.4948C50.8354 40.4554 50.8945 40.3666 50.8945 40.2976C50.8847 40.2384 50.9537 40.12 51.0425 40.051C51.1707 39.9523 51.2299 40.0312 51.4666 40.6724C51.6146 41.0768 51.7822 41.3924 51.8315 41.3825C51.8809 41.3628 51.9992 41.1063 52.0781 40.8104C52.157 40.5146 52.2557 40.2285 52.2853 40.1792C52.3247 40.12 52.5713 40.0411 52.8277 40.0017C53.094 39.9622 53.5379 39.8734 53.8042 39.8143C54.0902 39.7452 54.4848 39.5479 55.1752 38.9956L55.0963 39.4888C55.0568 39.7551 54.8892 40.2877 54.7313 40.6724C54.5834 41.057 54.1889 41.7573 53.8732 42.2505C53.5478 42.7338 52.8672 43.582 52.3543 44.1245C51.8414 44.667 51.2595 45.1996 50.6973 45.5054L50.3422 45.3081C50.1351 45.1996 49.5827 44.6867 49.0896 44.1738C48.6063 43.6609 47.975 42.8817 47.689 42.4478C47.4029 42.0138 47.038 41.3924 46.8703 41.0669C46.7125 40.7414 46.5054 40.2285 46.4166 39.9326Z" fill="url(#paint14_linear_103_133)"/>
<path d="M53.2124 39.6367C53.4886 39.5381 53.9423 39.2323 54.2481 38.9562C54.544 38.68 54.8004 38.4531 54.8201 38.4531C54.8399 38.4531 54.8103 38.5123 54.7511 38.5715C54.6919 38.6405 54.6623 38.7293 54.6919 38.7688C54.7215 38.8181 54.6426 38.9562 54.5242 39.0844C54.396 39.2225 53.9916 39.4395 53.607 39.5874C53.2223 39.7255 52.8672 39.834 52.8179 39.834C52.7686 39.8241 52.9363 39.7452 53.2124 39.6367Z" fill="url(#paint15_linear_103_133)"/>
<path d="M46.6533 38.8279C46.719 38.7424 46.7092 38.657 46.6237 38.5715C46.5645 38.5024 46.5349 38.4531 46.5842 38.4531C46.6237 38.4531 46.9097 38.68 47.2253 38.966C47.5311 39.2422 47.9256 39.5282 48.0834 39.5973C48.3399 39.7156 48.3498 39.7255 48.1623 39.7354C48.0341 39.7354 47.7678 39.6663 47.5706 39.5775C47.3634 39.4986 47.0478 39.3211 46.8801 39.183C46.6434 39.0153 46.5842 38.9068 46.6533 38.8279Z" fill="url(#paint16_linear_103_133)"/>
<path d="M70.2759 41.0077C70.8184 40.5639 71.6567 39.7946 72.14 39.2915C72.6233 38.7984 73.0277 38.4038 73.0376 38.4137C73.0475 38.4236 72.9488 38.828 72.8206 39.3113C72.6825 39.7847 72.3768 40.8203 72.1203 41.5995C71.7356 42.7733 71.6173 43.0396 71.4102 43.1382C71.2721 43.2072 69.9898 43.7103 68.5498 44.2528C67.1098 44.7952 64.8905 45.604 63.6182 46.038C62.3458 46.4819 61.0044 46.9454 60.6395 47.0835C60.2646 47.2216 59.9688 47.3104 59.9688 47.2808C59.9688 47.2512 60.7775 46.8172 61.7737 46.3043C62.7601 45.8013 64.21 45.0122 64.999 44.5684C65.7881 44.1245 67.0703 43.3157 67.8594 42.7831C68.6484 42.2505 69.7334 41.4516 70.2759 41.0077Z" fill="url(#paint17_linear_103_133)"/>
<path d="M52.6896 38.9266C52.8671 38.7983 53.2321 38.6208 53.5082 38.532C53.7844 38.4334 54.0606 38.3644 54.1296 38.3545C54.1888 38.3545 54.248 38.3841 54.248 38.4235C54.2578 38.4729 54.1493 38.6208 54.031 38.7589C53.9028 38.897 53.5576 39.1041 53.2617 39.2126C52.9658 39.3211 52.6008 39.4395 52.4529 39.4789C52.2063 39.5282 52.1866 39.5184 52.2753 39.3408C52.3246 39.2323 52.5219 39.0449 52.6896 38.9266Z" fill="url(#paint18_linear_103_133)"/>
<path d="M47.2748 38.7096C47.2057 38.6208 47.1663 38.5123 47.186 38.463C47.2057 38.4137 47.3734 38.4038 47.5608 38.4433C47.7383 38.4827 47.9948 38.5814 48.1329 38.6504C48.2709 38.7195 48.5274 38.897 48.7148 39.0351C48.8923 39.1732 49.0797 39.3606 49.1192 39.4395C49.1784 39.5578 49.0501 39.5381 48.5373 39.3606C48.1822 39.2324 47.7778 39.0647 47.6397 38.9956C47.5016 38.9266 47.3339 38.7984 47.2748 38.7096Z" fill="url(#paint19_linear_103_133)"/>
<path d="M29.1558 40.919C28.8007 39.8044 28.4654 38.7589 28.4062 38.6011C28.3174 38.3644 28.4753 38.4729 29.215 39.1929C29.718 39.6861 30.5367 40.416 31.02 40.8203C31.5033 41.2247 32.4206 41.925 33.042 42.359C33.6633 42.8029 34.5806 43.4045 35.0639 43.7004C35.5472 44.0062 36.5336 44.5783 37.2338 44.9827C37.9341 45.3969 39.1671 46.0775 39.966 46.5016C40.7649 46.9257 41.406 47.2907 41.3962 47.3005C41.3863 47.3202 39.4925 46.6397 37.1845 45.8013C34.8765 44.9629 32.3318 44.0259 31.5131 43.7201C30.7044 43.4144 29.9843 43.1185 29.9153 43.0494C29.8561 42.9903 29.5109 42.0335 29.1558 40.919Z" fill="url(#paint20_linear_103_133)"/>
<path d="M46.6337 35.6618C46.7027 35.3265 46.8112 34.8728 46.8704 34.6558L46.969 34.2612L47.2748 34.784C47.4523 35.07 48.0638 36.0859 48.6556 37.0328C49.2376 37.9797 49.711 38.7786 49.711 38.8279C49.7011 38.8674 49.6321 38.8082 49.5335 38.6997C49.4348 38.5912 49.1192 38.2953 48.8233 38.0487C48.5274 37.8021 47.9356 37.3583 47.5016 37.0624C47.0775 36.7665 46.683 36.4706 46.6139 36.4016C46.535 36.3029 46.535 36.1155 46.6337 35.6618Z" fill="url(#paint21_linear_103_133)"/>
<path d="M51.7329 38.6997L53.0447 36.4509C54.1001 34.636 54.3565 34.2415 54.4059 34.4289C54.4354 34.5571 54.5439 34.9911 54.6524 35.3955C54.7511 35.7999 54.8398 36.2043 54.8398 36.2832C54.8398 36.3621 54.5439 36.6284 54.179 36.875C53.8141 37.1216 53.1138 37.6345 51.7329 38.6997Z" fill="url(#paint22_linear_103_133)"/>
<path d="M50.8649 37.743C50.8847 36.4805 50.9241 34.4979 50.9537 33.3538L51.0228 31.2529L51.2792 31.3121C51.4173 31.3417 51.6935 31.4206 51.8809 31.4699C52.0683 31.5291 52.4727 31.6968 52.7686 31.8447C53.0645 31.9927 53.5182 32.2984 53.7746 32.5253C54.1198 32.8212 54.2283 32.979 54.1889 33.0974C54.1494 33.196 53.7845 33.9851 53.3702 34.853C52.9461 35.721 52.2458 37.1117 51.802 37.9304C51.3581 38.7589 50.9636 39.5775 50.9143 39.7354C50.8748 39.903 50.8551 39.0055 50.8649 37.743Z" fill="url(#paint23_linear_103_133)"/>
<path d="M48.4287 31.9631C48.6753 31.825 49.1783 31.608 49.563 31.4798C49.9477 31.3614 50.283 31.2628 50.3323 31.2529C50.3718 31.2529 50.4014 31.4896 50.4014 31.7658C50.4112 32.0519 50.4507 33.9259 50.5 35.938C50.5592 37.9501 50.6282 39.7255 50.6677 39.8833C50.6973 40.0411 50.3126 39.3803 49.8096 38.4038C49.3065 37.4273 48.4978 35.8394 48.0145 34.8728C47.541 33.916 47.1465 33.0776 47.1465 33.0283C47.1465 32.9691 47.3339 32.7719 47.5607 32.5746C47.7975 32.3773 48.1821 32.1012 48.4287 31.9631Z" fill="url(#paint24_linear_103_133)"/>
<path d="M73.6195 31.9434C74.0239 31.2628 74.6059 30.1877 74.9215 29.5564V29.5466C75.2272 28.9153 75.4837 28.3926 75.4936 28.3926C75.5034 28.3926 75.464 28.7772 75.3851 29.2507C75.316 29.734 75.1878 30.5822 75.099 31.1543C75.0103 31.7264 74.7933 33.0382 74.6059 34.064C74.4185 35.0897 74.2508 36.007 74.2212 36.0859C74.2015 36.1648 73.7971 36.4805 73.3138 36.7862C72.8403 37.092 71.0945 38.0882 69.4375 39.0153C67.7805 39.9425 65.1667 41.3825 63.6182 42.2209C62.0696 43.0691 60.6395 43.8483 60.4323 43.9667C60.2351 44.0752 60.0674 44.164 60.0674 44.1442C60.0674 44.1344 60.4027 43.8779 60.8269 43.5722C61.251 43.2664 62.2373 42.5661 63.0264 42.0039C63.8154 41.4417 65.2357 40.3962 66.1826 39.6762C67.1295 38.9562 68.4216 37.9304 69.043 37.3879C69.6644 36.8553 70.5027 36.0662 70.9071 35.6322C71.3017 35.2081 71.9132 34.4782 72.2584 34.0146C72.6036 33.5511 73.2151 32.6239 73.6195 31.9434Z" fill="url(#paint25_linear_103_133)"/>
<path d="M26.0391 29.083C26.0095 29.083 25.98 28.9153 25.98 28.7082L25.9701 28.3433L26.118 28.7378C26.2068 28.9548 26.5915 29.7734 26.986 30.5625C27.3805 31.3516 28.0118 32.4563 28.3866 33.0283C28.7614 33.6004 29.4025 34.4388 29.8069 34.9023C30.2113 35.3659 30.9609 36.1353 31.4738 36.6186C31.9867 37.092 33.0914 38.029 33.9298 38.6898C34.7681 39.3605 36.0405 40.3173 36.7408 40.8302C37.451 41.3529 38.6444 42.2012 39.4039 42.7239C40.1634 43.2467 40.9228 43.7892 41.0806 43.9272C41.3272 44.1442 41.2582 44.1245 40.6861 43.8187C40.3113 43.6116 39.1968 43.0001 38.2203 42.4478C37.2438 41.8954 36.1391 41.274 35.7545 41.0669C35.3797 40.8598 33.9988 40.0904 32.6969 39.3605C31.3949 38.6307 29.6491 37.6345 28.8107 37.1314C27.9625 36.6284 27.2523 36.1451 27.2129 36.0366C27.1635 35.9281 26.9959 35.1292 26.8381 34.2612C26.6704 33.3933 26.4238 31.9927 26.2857 31.1543C26.1378 30.3159 26.0391 29.5071 26.0589 29.3592C26.0786 29.2112 26.0687 29.083 26.0391 29.083Z" fill="url(#paint26_linear_103_133)"/>
<path d="M60.6494 29.0335C60.7677 28.4911 60.8861 27.9487 60.9157 27.8304V27.8205C60.9354 27.7021 60.9748 27.6035 60.9946 27.6035C61.0143 27.6035 61.0439 27.9487 61.0439 28.363C61.0537 28.7871 61.0044 29.6156 60.9453 30.2173C60.8861 30.8189 60.748 31.7264 60.6395 32.2393C60.531 32.7521 60.2844 33.6398 60.097 34.2119C59.9195 34.784 59.5644 35.6717 59.3178 36.1846C59.0712 36.6975 58.6866 37.3879 58.4696 37.7134C58.2427 38.0389 57.8186 38.5912 57.5227 38.9463C57.2169 39.3014 56.9309 39.6269 56.8816 39.686C56.8224 39.7452 56.9013 39.5874 57.0493 39.3408C57.1873 39.0942 57.355 38.9068 57.4043 38.9167C57.4635 38.9364 57.4832 38.9068 57.4536 38.8477C57.4241 38.7885 57.5523 38.4926 57.7397 38.177C57.9271 37.8712 58.2723 37.2104 58.5189 36.7271C58.7556 36.2437 59.1205 35.4251 59.3178 34.9221C59.5151 34.4289 59.6729 33.9949 59.6729 33.9653C59.6729 33.9357 59.6236 33.9357 59.5743 33.9653C59.5249 33.9949 59.4756 33.9259 59.4756 33.8174C59.4756 33.7089 59.4263 33.6004 59.377 33.5708C59.3277 33.5412 59.2093 33.5905 59.1304 33.6694C59.0515 33.7483 58.9825 33.8766 58.9825 33.9357C58.9825 34.0048 58.9627 34.0442 58.9331 34.0146C58.9036 33.9851 59.0614 33.5807 59.2784 33.0974C59.4953 32.6239 59.8406 31.7362 60.0576 31.1247C60.2647 30.523 60.531 29.5762 60.6494 29.0337L60.6494 29.0335Z" fill="url(#paint27_linear_103_133)"/>
<path d="M60.0871 29.4282C60.3436 28.8266 60.6099 28.0375 60.6789 27.6528C60.7479 27.2682 60.817 27.0314 60.8367 27.1104C60.8564 27.1893 60.7973 27.6627 60.7085 28.146C60.6197 28.6293 60.3929 29.4381 60.2055 29.9214C60.0082 30.4047 59.6827 31.1444 59.4756 31.5488C59.2586 31.9532 59.012 32.3773 58.9331 32.4858C58.8443 32.5943 58.8049 32.6141 58.8443 32.5352C58.8838 32.4563 58.795 32.4957 58.6471 32.6338C58.509 32.7719 58.3906 32.8409 58.3906 32.7817C58.3906 32.7226 58.3019 32.7719 58.1934 32.8804C58.0849 32.9889 57.9961 33.0382 57.9961 32.979C57.9961 32.9198 57.8777 32.9889 57.4536 33.3735L57.6509 33.127C57.7692 32.9889 58.0454 32.6732 58.2723 32.4069C58.4991 32.1505 58.8937 31.6179 59.1501 31.2332C59.4065 30.8387 59.8307 30.0299 60.0871 29.4282Z" fill="url(#paint28_linear_103_133)"/>
<path d="M40.5381 31.0557C40.4099 30.3652 40.3112 29.3493 40.2816 28.4419L40.2422 26.9624L40.4395 27.998C40.5381 28.5701 40.7551 29.4775 40.9228 30.02C41.0806 30.5625 41.4159 31.4699 41.6526 32.042C41.8894 32.6141 42.205 33.3439 42.3529 33.6694C42.491 33.9949 42.5403 34.1725 42.4614 34.064C42.3825 33.9555 42.3135 33.8371 42.3135 33.7878C42.3135 33.7483 42.2444 33.7385 42.1655 33.7681C42.0866 33.7977 42.0274 33.847 42.0274 33.8864C42.0373 33.9357 42.0373 34.0245 42.0274 34.0837C42.0274 34.1527 41.9781 34.1922 41.9189 34.1626C41.8696 34.133 41.8203 34.133 41.8203 34.1626C41.8203 34.1922 41.9485 34.5374 42.1063 34.9319C42.2642 35.3166 42.5995 36.0761 42.8461 36.5988C43.1025 37.1512 43.2604 37.5852 43.2012 37.6147C43.1519 37.6443 43.1025 37.7232 43.1025 37.7824C43.0927 37.8811 43.1223 37.8811 43.2505 37.7824C43.3688 37.6838 43.4083 37.6838 43.4675 37.7824C43.4971 37.8515 43.4872 37.8811 43.4379 37.8416C43.3886 37.7923 43.2899 37.812 43.2308 37.8613C43.1321 37.9304 43.0138 37.812 42.7672 37.3978C42.5798 37.0821 42.2642 36.4706 42.0669 36.0366C41.8696 35.6026 41.6033 34.9812 41.4751 34.6558C41.3567 34.3303 41.1397 33.6398 41.0017 33.127C40.8636 32.6141 40.6466 31.6771 40.5381 31.0557Z" fill="url(#paint29_linear_103_133)"/>
<path d="M40.7058 28.2939C40.5677 27.7219 40.4296 27.0413 40.4 26.7651C40.3507 26.3114 40.3605 26.3311 40.4986 26.9131C40.5775 27.2682 40.7748 27.9389 40.9326 28.4222C41.1003 28.8956 41.4258 29.6649 41.6625 30.1384C41.9091 30.6217 42.2938 31.2825 42.5305 31.6179C42.7672 31.9532 43.1519 32.4661 43.3984 32.7521C43.6352 33.0382 43.7437 33.196 43.645 33.1072C43.5365 33.0184 43.3984 32.9395 43.3491 32.9297C43.2899 32.9297 43.142 32.8212 43.0039 32.7127C42.8658 32.5943 42.7376 32.4957 42.708 32.4858C42.6784 32.4858 42.6686 32.4562 42.6784 32.4069C42.6981 32.3675 42.6192 32.3576 42.5107 32.3872C42.4022 32.4168 42.3332 32.3971 42.3628 32.3379C42.3924 32.2787 42.3628 32.2392 42.3135 32.2392C42.2543 32.2392 42.0472 31.894 41.8302 31.4798C41.623 31.0557 41.337 30.4047 41.1989 30.02C41.0707 29.6353 40.8438 28.866 40.7058 28.2939Z" fill="url(#paint30_linear_103_133)"/>
<path d="M60.3239 25.4632C60.4422 24.901 60.4718 24.3684 60.4422 23.5103L60.4028 22.3267L60.5705 23.0171C60.6691 23.4116 60.748 24.1119 60.748 24.6445C60.748 25.1574 60.6888 25.8676 60.6198 26.2227C60.5409 26.5777 60.3633 27.1301 60.2154 27.4556C60.0674 27.7811 59.7518 28.3531 59.5052 28.7378C59.2586 29.1225 58.7359 29.8326 58.3414 30.3159C57.9567 30.7992 57.5128 31.4009 57.3748 31.6475C57.2367 31.894 57.0493 32.3576 56.9605 32.6831C56.8816 33.0086 56.8125 33.482 56.8125 33.7385C56.8125 34.1823 56.8027 34.2119 56.5956 34.1429C56.4673 34.1133 56.3391 34.0344 56.2997 33.9752C56.2602 33.916 56.2208 33.7188 56.2208 33.5412C56.2208 33.3735 56.1714 33.2059 56.1221 33.1763C56.0728 33.1467 56.0136 33.2157 56.0038 33.3242C55.984 33.4426 55.9249 33.5215 55.8755 33.5215C55.8262 33.5215 55.7473 33.6596 55.7079 33.8371C55.6684 34.0146 55.6585 33.8075 55.6783 33.3735C55.7079 32.9396 55.7473 32.476 55.7769 32.3379C55.8065 32.1998 55.6881 32.4464 55.5106 32.8804C55.3429 33.3144 55.1851 33.6892 55.1654 33.7188C55.1457 33.7483 55.1161 33.7483 55.0766 33.7188C55.047 33.6892 55.0766 33.4031 55.1457 33.0776C55.2048 32.7521 55.3429 32.3083 55.4514 32.0913C55.5698 31.8743 55.7966 31.5192 55.9643 31.3121C56.132 31.0951 56.7336 30.5428 57.3057 30.0693C57.9074 29.5762 58.5781 28.9153 58.9036 28.4813C59.2093 28.077 59.6236 27.4062 59.811 26.9821C60.0083 26.5679 60.2351 25.8774 60.3239 25.4632Z" fill="url(#paint31_linear_103_133)"/>
<path d="M40.5874 24.4473C40.617 24.0922 40.7157 23.4708 40.7946 23.0664C40.8735 22.662 40.9623 22.3562 40.982 22.3858C41.0017 22.4154 40.9721 22.6817 40.9129 22.9776C40.8538 23.2735 40.834 23.885 40.8636 24.3486C40.8932 24.8122 40.9918 25.4533 41.0806 25.7788C41.1595 26.1043 41.4258 26.775 41.6724 27.2583C41.9091 27.7416 42.3234 28.4123 42.5897 28.7378C42.856 29.0633 43.3788 29.5663 43.7536 29.8622C44.1284 30.1581 44.6511 30.6019 44.9076 30.8485C45.1739 31.0951 45.529 31.4995 45.6966 31.7461C45.8643 31.9927 46.0813 32.4365 46.1799 32.7324C46.2786 33.0283 46.3575 33.3834 46.3476 33.5215C46.3377 33.699 46.3082 33.6596 46.2391 33.3735C46.1898 33.1565 46.1306 32.9593 46.1109 32.9297C46.0912 32.9001 46.0813 33.1664 46.101 33.5215C46.1306 33.9653 46.1207 34.0442 46.0714 33.7681C46.032 33.5511 45.9333 33.2157 45.6769 32.6831L45.6572 33.5215C45.6473 34.2415 45.6374 34.3105 45.5487 34.0146C45.4994 33.8272 45.4205 33.5313 45.381 33.3735C45.3021 33.0875 45.3021 33.0875 45.2133 33.5412C45.1541 33.847 45.0654 34.0245 44.947 34.064C44.8582 34.0935 44.7399 34.2119 44.6906 34.3303C44.6117 34.5078 44.5919 34.4289 44.5919 33.9653C44.5821 33.6398 44.513 33.1171 44.4341 32.8015C44.3552 32.4957 44.1777 32.0321 44.0495 31.7757C43.9114 31.5094 43.4478 30.8781 43.004 30.3652C42.5601 29.8523 41.9979 29.0929 41.7612 28.6885C41.5146 28.2841 41.199 27.6134 41.0412 27.209C40.8833 26.8046 40.6959 26.1635 40.6368 25.7788C40.5776 25.3941 40.5579 24.8023 40.5874 24.4473Z" fill="url(#paint32_linear_103_133)"/>
<path d="M60.0575 21.0444C59.8405 20.6696 59.5051 20.137 59.3177 19.8608C58.9824 19.3775 58.9824 19.3775 59.2783 19.7129C59.4558 19.9003 59.7911 20.3935 60.0279 20.7979C60.2646 21.2023 60.4619 21.5771 60.4619 21.6362C60.4619 21.6954 60.2843 21.4192 60.0575 21.0444Z" fill="url(#paint33_linear_103_133)"/>
<path d="M41.7118 20.2061C41.8499 20.0187 42.0471 19.7622 42.1556 19.6438V19.634C42.2641 19.5156 42.3628 19.417 42.3726 19.417C42.3923 19.417 42.2148 19.6734 41.988 19.9792C41.7611 20.285 41.3863 20.8965 41.1496 21.3305C40.9129 21.7743 40.755 22.0209 40.7945 21.8828C40.8241 21.7447 40.9918 21.3896 41.1594 21.0938C41.3271 20.7979 41.5737 20.3935 41.7118 20.2061Z" fill="url(#paint34_linear_103_133)"/>
<path d="M25.6248 19.5156C25.8319 18.8943 26.1574 18.0362 26.3448 17.612C26.5224 17.1879 26.6802 16.8526 26.69 16.8723C26.6999 16.892 26.6013 17.3655 26.473 17.9375C26.3054 18.697 26.2363 19.2691 26.2363 20.1074C26.2363 20.7288 26.3054 21.6461 26.3843 22.1294C26.473 22.6226 26.6802 23.4412 26.8577 23.9541C27.0353 24.467 27.4101 25.3153 27.6961 25.8281C27.9821 26.341 28.495 27.14 28.8402 27.6035C29.1854 28.0671 29.8364 28.8463 30.2901 29.3296C30.7438 29.8228 31.6513 30.7302 32.3022 31.3516C32.9631 31.973 34.1565 33.0875 34.9653 33.8174C35.784 34.5572 37.1057 35.7309 37.9243 36.4312C38.7331 37.1413 39.9562 38.1868 40.6367 38.7589C41.3173 39.3408 41.9584 39.9031 42.0669 40.0214C42.1754 40.1398 42.2346 40.2384 42.1853 40.2285C42.1458 40.2285 41.7315 39.9721 41.2482 39.6565C40.7748 39.3408 39.5715 38.4827 38.5654 37.7529C37.5594 37.0131 35.9418 35.8295 34.9653 35.0996C33.9889 34.3796 32.6771 33.3834 32.0557 32.9001C31.4343 32.407 30.4973 31.6475 29.9844 31.2135C29.4715 30.7795 28.7021 30.1088 28.2682 29.7241C27.844 29.3493 27.1635 28.6589 26.7591 28.1953C26.3547 27.7318 25.8122 27.0512 25.5656 26.6665C25.319 26.2819 25.033 25.7197 24.9344 25.4139C24.816 25.0292 24.7568 24.5361 24.7568 23.9344C24.7568 23.3525 24.8456 22.5831 25.0034 21.8335C25.1316 21.1825 25.4177 20.137 25.6248 19.5156Z" fill="url(#paint35_linear_103_133)"/>
<path d="M74.8722 17.5627C74.7539 17.178 74.6651 16.8229 74.6651 16.7835V16.7736C74.6651 16.7342 74.6848 16.7243 74.7045 16.7539C74.7331 16.7825 74.9547 17.289 75.2185 17.8919L75.247 17.9572C75.5232 18.5983 75.898 19.6241 76.0854 20.2258C76.2728 20.8373 76.4898 21.7644 76.5786 22.2773C76.6673 22.7902 76.7364 23.5497 76.7364 23.9541C76.7364 24.4078 76.6673 24.9404 76.549 25.335C76.4405 25.69 76.1643 26.2621 75.9276 26.6172C75.7007 26.9723 74.9314 27.8501 74.2212 28.58C73.521 29.3 72.4064 30.3554 71.7554 30.9077C71.1044 31.4601 69.9307 32.4168 69.1417 33.0382C68.3526 33.6497 66.6857 34.9122 65.4429 35.8393C64.2002 36.7665 62.4248 38.0586 61.4976 38.7194C60.5705 39.3704 59.6926 39.9918 59.5348 40.0904C59.3178 40.2384 59.2685 40.2482 59.3178 40.1299C59.3474 40.051 60.097 39.3605 60.9749 38.6011C61.8626 37.8416 63.273 36.6284 64.1114 35.8985C64.9498 35.1588 66.301 33.9555 67.1197 33.2157C67.9285 32.476 69.2008 31.2529 69.9307 30.5033C70.6606 29.7438 71.5483 28.7772 71.8935 28.3433C72.2486 27.9093 72.7516 27.2188 73.0179 26.8144C73.2842 26.4101 73.6886 25.6703 73.9253 25.187C74.1621 24.6938 74.4481 24.033 74.5566 23.7075C74.6651 23.382 74.8426 22.6521 74.961 22.0801C75.1385 21.2121 75.1681 20.8274 75.1287 19.6636C75.0892 18.6674 75.0202 18.0854 74.8722 17.5627Z" fill="url(#paint36_linear_103_133)"/>
<defs>
<linearGradient id="paint0_linear_103_133" x1="50.6763" y1="51.6699" x2="50.6763" y2="79.0549" gradientUnits="userSpaceOnUse">
<stop stop-color="#E2A300"/>
<stop offset="0.0001" stop-color="#5E4402"/>
<stop offset="1" stop-color="#FFB800"/>
</linearGradient>
<linearGradient id="paint1_linear_103_133" x1="50.6973" y1="51.5713" x2="50.6973" y2="56.3057" gradientUnits="userSpaceOnUse">
<stop stop-color="#E2A300"/>
<stop offset="0.0001" stop-color="#5E4402"/>
<stop offset="1" stop-color="#FFB800"/>
</linearGradient>
<linearGradient id="paint2_linear_103_133" x1="58.3839" y1="50.2041" x2="58.3839" y2="55.2968" gradientUnits="userSpaceOnUse">
<stop stop-color="#E2A300"/>
<stop offset="0.0001" stop-color="#5E4402"/>
<stop offset="1" stop-color="#FFB800"/>
</linearGradient>
<linearGradient id="paint3_linear_103_133" x1="43.0916" y1="50.0918" x2="43.0916" y2="55.2597" gradientUnits="userSpaceOnUse">
<stop stop-color="#E2A300"/>
<stop offset="0.0001" stop-color="#5E4402"/>
<stop offset="1" stop-color="#FFB800"/>
</linearGradient>
<linearGradient id="paint4_linear_103_133" x1="64.4365" y1="50.0311" x2="64.4365" y2="52.0842" gradientUnits="userSpaceOnUse">
<stop stop-color="#E2A300"/>
<stop offset="0.0001" stop-color="#5E4402"/>
<stop offset="1" stop-color="#FFB800"/>
</linearGradient>
<linearGradient id="paint5_linear_103_133" x1="36.8983" y1="50.0549" x2="36.8983" y2="51.9856" gradientUnits="userSpaceOnUse">
<stop stop-color="#E2A300"/>
<stop offset="0.0001" stop-color="#5E4402"/>
<stop offset="1" stop-color="#FFB800"/>
</linearGradient>
<linearGradient id="paint6_linear_103_133" x1="50.7013" y1="49.1942" x2="50.7013" y2="55.1816" gradientUnits="userSpaceOnUse">
<stop stop-color="#AFAFAF"/>
<stop stop-color="#E2A300"/>
<stop offset="0.0001" stop-color="#5E4402"/>
<stop offset="1" stop-color="#FFB800"/>
</linearGradient>
<linearGradient id="paint7_linear_103_133" x1="57.2252" y1="46.8763" x2="57.2252" y2="48.7287" gradientUnits="userSpaceOnUse">
<stop stop-color="#E2A300"/>
<stop offset="0.0001" stop-color="#5E4402"/>
<stop offset="1" stop-color="#FFB800"/>
</linearGradient>
<linearGradient id="paint8_linear_103_133" x1="53.2847" y1="45.1008" x2="53.2847" y2="50.0525" gradientUnits="userSpaceOnUse">
<stop stop-color="#E2A300"/>
<stop offset="0.0001" stop-color="#5E4402"/>
<stop offset="1" stop-color="#FFB800"/>
</linearGradient>
<linearGradient id="paint9_linear_103_133" x1="48.1778" y1="45.0155" x2="48.1778" y2="50.0918" gradientUnits="userSpaceOnUse">
<stop stop-color="#E2A300"/>
<stop offset="0.0001" stop-color="#5E4402"/>
<stop offset="1" stop-color="#FFB800"/>
</linearGradient>
<linearGradient id="paint10_linear_103_133" x1="65.3397" y1="44.8779" x2="65.3397" y2="49.866" gradientUnits="userSpaceOnUse">
<stop stop-color="#E2A300"/>
<stop offset="0.0001" stop-color="#5E4402"/>
<stop offset="1" stop-color="#FFB800"/>
</linearGradient>
<linearGradient id="paint11_linear_103_133" x1="36.0995" y1="44.979" x2="36.0995" y2="49.8688" gradientUnits="userSpaceOnUse">
<stop stop-color="#E2A300"/>
<stop offset="0.0001" stop-color="#5E4402"/>
<stop offset="1" stop-color="#FFB800"/>
</linearGradient>
<linearGradient id="paint12_linear_103_133" x1="57.6647" y1="42.6935" x2="57.6647" y2="44.9136" gradientUnits="userSpaceOnUse">
<stop stop-color="#E2A300"/>
<stop offset="0.0001" stop-color="#5E4402"/>
<stop offset="1" stop-color="#FFB800"/>
</linearGradient>
<linearGradient id="paint13_linear_103_133" x1="43.8283" y1="42.2103" x2="43.8283" y2="45.1156" gradientUnits="userSpaceOnUse">
<stop stop-color="#E2A300"/>
<stop offset="0.0001" stop-color="#5E4402"/>
<stop offset="1" stop-color="#FFB800"/>
</linearGradient>
<linearGradient id="paint14_linear_103_133" x1="50.717" y1="38.9956" x2="50.717" y2="45.5054" gradientUnits="userSpaceOnUse">
<stop stop-color="#E2A300"/>
<stop offset="0.0001" stop-color="#5E4402"/>
<stop offset="1" stop-color="#FFB800"/>
</linearGradient>
<linearGradient id="paint15_linear_103_133" x1="53.8178" y1="38.4531" x2="53.8178" y2="39.834" gradientUnits="userSpaceOnUse">
<stop stop-color="#E2A300"/>
<stop offset="0.0001" stop-color="#5E4402"/>
<stop offset="1" stop-color="#FFB800"/>
</linearGradient>
<linearGradient id="paint16_linear_103_133" x1="47.4252" y1="38.4531" x2="47.4252" y2="39.7354" gradientUnits="userSpaceOnUse">
<stop stop-color="#E2A300"/>
<stop offset="0.0001" stop-color="#5E4402"/>
<stop offset="1" stop-color="#FFB800"/>
</linearGradient>
<linearGradient id="paint17_linear_103_133" x1="66.5035" y1="38.4135" x2="66.5035" y2="47.2865" gradientUnits="userSpaceOnUse">
<stop stop-color="#E2A300"/>
<stop offset="0.0001" stop-color="#5E4402"/>
<stop offset="1" stop-color="#FFB800"/>
</linearGradient>
<linearGradient id="paint18_linear_103_133" x1="53.2378" y1="38.3545" x2="53.2378" y2="39.5045" gradientUnits="userSpaceOnUse">
<stop stop-color="#FFF500"/>
<stop offset="0.0001" stop-color="#656565"/>
<stop offset="1" stop-color="white"/>
</linearGradient>
<linearGradient id="paint19_linear_103_133" x1="48.1567" y1="38.4189" x2="48.1567" y2="39.5141" gradientUnits="userSpaceOnUse">
<stop stop-color="#FFF500"/>
<stop offset="0.0001" stop-color="#656565"/>
<stop offset="1" stop-color="white"/>
</linearGradient>
<linearGradient id="paint20_linear_103_133" x1="34.8901" y1="38.4884" x2="34.8901" y2="47.3009" gradientUnits="userSpaceOnUse">
<stop stop-color="#E2A300"/>
<stop offset="0.0001" stop-color="#5E4402"/>
<stop offset="1" stop-color="#FFB800"/>
</linearGradient>
<linearGradient id="paint21_linear_103_133" x1="48.134" y1="34.2612" x2="48.134" y2="38.8402" gradientUnits="userSpaceOnUse">
<stop stop-color="#E2A300"/>
<stop offset="0.0001" stop-color="#5E4402"/>
<stop offset="1" stop-color="#FFB800"/>
</linearGradient>
<linearGradient id="paint22_linear_103_133" x1="53.2864" y1="34.3867" x2="53.2864" y2="38.6997" gradientUnits="userSpaceOnUse">
<stop stop-color="#E2A300"/>
<stop offset="0.0001" stop-color="#5E4402"/>
<stop offset="1" stop-color="#FFB800"/>
</linearGradient>
<linearGradient id="paint23_linear_103_133" x1="52.5295" y1="31.2529" x2="52.5295" y2="39.7555" gradientUnits="userSpaceOnUse">
<stop stop-color="#E2A300"/>
<stop offset="0.0001" stop-color="#5E4402"/>
<stop offset="1" stop-color="#FFB800"/>
</linearGradient>
<linearGradient id="paint24_linear_103_133" x1="48.9079" y1="31.2529" x2="48.9079" y2="39.9066" gradientUnits="userSpaceOnUse">
<stop stop-color="#E2A300"/>
<stop offset="0.0001" stop-color="#5E4402"/>
<stop offset="1" stop-color="#FFB800"/>
</linearGradient>
<linearGradient id="paint25_linear_103_133" x1="67.7812" y1="28.3926" x2="67.7812" y2="44.147" gradientUnits="userSpaceOnUse">
<stop stop-color="#E2A300"/>
<stop offset="0.0001" stop-color="#5E4402"/>
<stop offset="1" stop-color="#FFB800"/>
</linearGradient>
<linearGradient id="paint26_linear_103_133" x1="33.5928" y1="28.3433" x2="33.5928" y2="44.072" gradientUnits="userSpaceOnUse">
<stop stop-color="#E2A300"/>
<stop offset="0.0001" stop-color="#5E4402"/>
<stop offset="1" stop-color="#FFB800"/>
</linearGradient>
<linearGradient id="paint27_linear_103_133" x1="58.9535" y1="27.6035" x2="58.9535" y2="39.6985" gradientUnits="userSpaceOnUse">
<stop stop-color="#E2A300"/>
<stop offset="0.0001" stop-color="#5E4402"/>
<stop offset="1" stop-color="#FFB800"/>
</linearGradient>
<linearGradient id="paint28_linear_103_133" x1="59.1471" y1="27.0952" x2="59.1471" y2="33.3735" gradientUnits="userSpaceOnUse">
<stop stop-color="#E2A300"/>
<stop offset="0.0001" stop-color="#5E4402"/>
<stop offset="1" stop-color="#FFB800"/>
</linearGradient>
<linearGradient id="paint29_linear_103_133" x1="41.8632" y1="26.9624" x2="41.8632" y2="37.8798" gradientUnits="userSpaceOnUse">
<stop stop-color="#E2A300"/>
<stop offset="0.0001" stop-color="#5E4402"/>
<stop offset="1" stop-color="#FFB800"/>
</linearGradient>
<linearGradient id="paint30_linear_103_133" x1="42.0272" y1="26.4482" x2="42.0272" y2="33.1319" gradientUnits="userSpaceOnUse">
<stop stop-color="#E2A300"/>
<stop offset="0.0001" stop-color="#5E4402"/>
<stop offset="1" stop-color="#FFB800"/>
</linearGradient>
<linearGradient id="paint31_linear_103_133" x1="57.9066" y1="22.3267" x2="57.9066" y2="34.1712" gradientUnits="userSpaceOnUse">
<stop stop-color="#E2A300"/>
<stop offset="0.0001" stop-color="#5E4402"/>
<stop offset="1" stop-color="#FFB800"/>
</linearGradient>
<linearGradient id="paint32_linear_103_133" x1="43.4611" y1="22.3839" x2="43.4611" y2="34.4177" gradientUnits="userSpaceOnUse">
<stop stop-color="#E2A300"/>
<stop offset="0.0001" stop-color="#5E4402"/>
<stop offset="1" stop-color="#FFB800"/>
</linearGradient>
<linearGradient id="paint33_linear_103_133" x1="59.7614" y1="19.4774" x2="59.7614" y2="21.6442" gradientUnits="userSpaceOnUse">
<stop stop-color="#E2A300"/>
<stop offset="0.0001" stop-color="#5E4402"/>
<stop offset="1" stop-color="#FFB800"/>
</linearGradient>
<linearGradient id="paint34_linear_103_133" x1="41.5813" y1="19.417" x2="41.5813" y2="21.9212" gradientUnits="userSpaceOnUse">
<stop stop-color="#E2A300"/>
<stop offset="0.0001" stop-color="#5E4402"/>
<stop offset="1" stop-color="#FFB800"/>
</linearGradient>
<linearGradient id="paint35_linear_103_133" x1="33.4798" y1="16.8715" x2="33.4798" y2="40.2292" gradientUnits="userSpaceOnUse">
<stop stop-color="#E2A300"/>
<stop offset="0.0001" stop-color="#5E4402"/>
<stop offset="1" stop-color="#FFB800"/>
</linearGradient>
<linearGradient id="paint36_linear_103_133" x1="68.0183" y1="16.7367" x2="68.0183" y2="40.2109" gradientUnits="userSpaceOnUse">
<stop stop-color="#E2A300"/>
<stop offset="0.0001" stop-color="#5E4402"/>
<stop offset="1" stop-color="#FFB800"/>
</linearGradient>
</defs>
</svg>
